<svg width="144" height="165" viewBox="0 0 144 165" fill="none" xmlns="http://www.w3.org/2000/svg">
<rect width="144" height="165" rx="4" fill="#C9D1E1"/>
<path d="M81.6321 139.944C82.5129 140.223 107.73 139.998 108.682 139.401C109.047 139.18 109.23 135.636 109.317 131.351C109.317 131.306 109.317 131.264 109.317 131.218C109.317 130.335 109.353 129.425 109.357 128.504C109.357 128.378 108.202 115.508 108.202 115.508L91.7214 115.611L92.9553 128.607L93.0466 131.191V131.458C93.0466 131.458 83.4492 135.709 82.4692 136.473C81.4893 137.238 80.7473 139.669 81.6321 139.944Z" fill="#FAD2BB"/>
<path d="M109.259 133.574C109.156 136.8 108.982 139.216 108.68 139.399C107.728 139.992 82.4945 140.221 81.6256 139.942C80.7568 139.663 81.4987 137.221 82.4668 136.464C83.7384 135.725 85.0539 135.059 86.4065 134.468C85.4186 135.5 84.9187 136.643 87.569 136.643C92.2744 136.643 100.487 135.898 109.259 133.574Z" fill="#263238"/>
<path d="M92.253 130.97H110.408C110.408 130.97 106.754 90.1089 106.897 89.3941C107.08 88.4806 108.151 84.3448 109.575 78.9437C110.023 77.2504 110.507 75.4386 111.007 73.5579C112.36 68.4741 113.856 62.9202 115.153 58.0849C117.105 50.8414 118.629 45.2148 118.629 45.2148H103.239C103.239 45.2148 101.446 50.6923 99.1842 57.8288C95.5024 69.4106 90.5827 85.35 90.0947 89.2298C89.3091 95.4794 92.253 130.97 92.253 130.97Z" fill="#37474F"/>
<path d="M93.0519 127.985C95.8291 127.928 95.0356 127.909 97.8129 127.882C99.1698 127.882 108.089 127.794 109.354 127.996C109.362 127.996 109.369 127.999 109.374 128.004C109.379 128.009 109.382 128.016 109.382 128.023C109.382 128.03 109.379 128.037 109.374 128.042C109.369 128.047 109.362 128.05 109.354 128.05C108.089 128.253 99.1698 128.18 97.8129 128.165C95.0356 128.142 95.8291 128.119 93.0519 128.061C93.0414 128.061 93.0313 128.057 93.0238 128.05C93.0164 128.043 93.0122 128.033 93.0122 128.023C93.0122 128.013 93.0164 128.003 93.0238 127.996C93.0313 127.989 93.0414 127.985 93.0519 127.985Z" fill="#263238"/>
<path d="M103.48 86.8976C104.075 84.3671 104.964 81.8902 105.738 79.4095C107.325 74.3639 108.912 69.3222 110.499 64.2843C111.292 61.7666 112.085 59.2476 112.879 56.7274C113.284 55.4532 113.692 54.1791 114.105 52.905C114.502 51.6627 114.97 50.4319 115.331 49.182C115.482 48.6698 115.561 48.9526 115.371 49.5986C114.974 50.902 114.613 52.2093 114.216 53.5089C113.423 56.0903 112.636 58.6679 111.855 61.2416C110.268 66.3636 108.681 71.4844 107.094 76.6039C106.301 79.1725 105.499 81.7386 104.69 84.3022C104.286 85.5244 103.959 86.769 103.71 88.029C103.497 89.3462 103.443 90.6829 103.551 92.0119C103.722 94.6876 104.047 97.3633 104.301 100.039L105.075 108.066C105.588 113.394 106.095 118.72 106.594 124.044C106.658 124.72 106.717 125.397 106.773 126.07C106.773 126.299 106.626 126.326 106.598 126.108C106.003 120.84 105.353 115.512 104.841 110.241C104.329 104.97 103.821 99.7447 103.309 94.4965C103.182 93.1778 103.036 91.8552 103.036 90.5327C103.043 89.3088 103.192 88.0895 103.48 86.8976Z" fill="#263238"/>
<path d="M104.985 45.2148C106.052 53.1807 108.088 68.111 109.572 78.9437C113.043 65.8176 118.625 45.2148 118.625 45.2148H104.985Z" fill="#263238"/>
<path d="M101.204 139.944C102.089 140.223 127.303 139.998 128.255 139.401C128.624 139.18 128.802 135.636 128.894 131.351V131.218C128.913 130.335 128.929 129.425 128.933 128.504C128.933 128.378 128.933 128.251 128.933 128.121C128.993 121.937 128.537 115.508 128.537 115.508L112.056 115.611L112.516 128.095V128.588L112.607 131.172V131.439C112.607 131.439 103.03 135.709 102.046 136.473C101.062 137.238 100.32 139.669 101.204 139.944Z" fill="#FAD2BB"/>
<path d="M128.841 133.574C128.733 136.8 128.559 139.216 128.257 139.399C127.305 139.992 102.072 140.221 101.207 139.942C100.342 139.663 101.076 137.221 102.048 136.464C103.319 135.723 104.634 135.057 105.988 134.468C104.996 135.5 104.5 136.643 107.146 136.643C111.852 136.643 120.064 135.898 128.841 133.574Z" fill="#263238"/>
<path d="M103.735 45.2148C103.735 45.2148 104.088 52.3092 105.774 57.9281C105.909 58.3945 106.056 58.8493 106.215 59.2889C107.76 59.8886 109.244 60.623 110.65 61.483C110.65 61.483 110.825 67.1936 111.004 73.5579C111.202 80.6752 111.4 88.6106 111.365 90.2962C111.21 96.5917 112.182 131.226 112.182 131.226L130.337 131.295C130.337 131.295 127.052 92.6203 127.076 90.3115C127.112 86.6038 126.195 70.2133 125.489 58.2607C125.238 53.8794 124.671 49.5202 123.791 45.2148H103.735Z" fill="#37474F"/>
<path d="M112.804 128.115C115.581 128.069 114.788 128.046 117.565 128.031C118.922 128.031 127.841 127.985 129.11 128.192C129.138 128.192 129.138 128.245 129.11 128.249C127.841 128.444 118.922 128.333 117.565 128.314C114.788 128.28 115.581 128.261 112.804 128.192C112.793 128.192 112.783 128.188 112.776 128.181C112.768 128.173 112.764 128.164 112.764 128.154C112.764 128.143 112.768 128.134 112.776 128.126C112.783 128.119 112.793 128.115 112.804 128.115Z" fill="#263238"/>
<path d="M123.182 47.7503C123.516 57.5089 123.869 67.2713 124.321 77.0223C124.773 86.7732 127.162 121.848 127.773 127.287C127.773 127.325 127.721 127.337 127.713 127.287C126.392 117.605 125.654 103.278 125.008 93.535C124.361 83.7917 123.916 74.0408 123.571 64.286C123.377 58.7665 123.226 53.2469 123.056 47.7312C123.052 47.6662 123.179 47.6739 123.182 47.7503Z" fill="#263238"/>
<path d="M105.459 58.8791C107.265 59.6056 109.003 60.4817 110.652 61.4975C110.667 61.5046 110.677 61.5168 110.682 61.5315C110.687 61.5462 110.685 61.5621 110.678 61.5758C110.671 61.5895 110.658 61.5998 110.643 61.6045C110.628 61.6091 110.611 61.6078 110.597 61.6007C108.843 60.7827 107.058 59.9914 105.356 59.0817C105.333 59.0657 105.317 59.0427 105.311 59.0166C105.304 58.9905 105.307 58.963 105.32 58.9389C105.332 58.9148 105.352 58.8956 105.378 58.8847C105.403 58.8738 105.432 58.8718 105.459 58.8791Z" fill="#263238"/>
<path d="M105.361 52.8489C105.48 53.4681 105.638 54.0835 105.777 54.7027C105.916 55.322 106.003 55.8724 106.174 56.4457C106.304 57.0009 106.596 57.5088 107.015 57.9097C107.253 58.12 107.515 58.292 107.765 58.5022C107.9 58.6054 108.047 58.7048 108.19 58.8118C108.17 58.7315 108.154 58.6474 108.138 58.5634C108.098 58.3264 108.055 58.0894 108.015 57.8524C107.924 57.3325 107.836 56.8051 107.753 56.2814C107.59 55.2493 107.44 54.2058 107.214 53.1852C107.216 53.1785 107.22 53.1726 107.227 53.1685C107.233 53.1644 107.24 53.1621 107.247 53.1621C107.255 53.1621 107.262 53.1644 107.268 53.1685C107.274 53.1726 107.279 53.1785 107.281 53.1852C107.547 54.1982 107.844 55.1996 108.074 56.2202C108.19 56.721 108.594 59.1902 108.614 59.3661C108.634 59.5419 108.65 59.7483 108.654 59.9088C108.679 60.0928 108.679 60.2792 108.654 60.4631C108.654 60.509 108.586 60.5013 108.566 60.4631C108.487 60.2916 108.432 60.1102 108.404 59.9241C108.356 59.7483 108.313 59.5686 108.281 59.389C108.281 59.324 108.261 59.259 108.249 59.1941C107.999 59.045 107.761 58.85 107.527 58.6857C107.293 58.5213 107.011 58.334 106.773 58.1391C106.327 57.7767 106.005 57.2931 105.849 56.7515C105.694 56.1687 105.593 55.574 105.547 54.9741C105.468 54.2746 105.408 53.5675 105.305 52.868C105.285 52.8221 105.353 52.8068 105.361 52.8489Z" fill="#263238"/>
<path d="M108.752 12.1352C114.429 13.4043 119.817 22.3449 118.98 30.7006C118.08 39.733 109.458 43.2228 103.904 42.4966C97.996 41.7321 95.0244 36.2431 96.7264 32.2334C98.3729 28.3613 102.102 26.538 102.483 23.2355C102.662 21.653 101.979 18.9467 102.142 16.5998C102.321 13.9814 105.324 11.3707 108.752 12.1352Z" fill="#263238"/>
<path d="M111.041 13.0586C113.536 14.724 115.655 16.859 117.27 19.335C118.075 20.5771 118.716 21.9112 119.178 23.3065C119.401 24.007 119.578 24.7207 119.706 25.4432C119.826 26.1661 119.906 26.8947 119.948 27.6258C120.083 30.5384 119.515 33.5505 117.928 36.0733C117.142 37.3295 116.13 38.4413 114.941 39.3567C113.752 40.262 112.41 40.9617 110.973 41.4246C113.806 40.3972 116.184 38.4616 117.71 35.9433C119.167 33.4097 119.83 30.5229 119.618 27.6334C119.584 26.914 119.51 26.1969 119.396 25.4852C119.275 24.7745 119.105 24.0722 118.888 23.3829C118.438 22.0071 117.821 20.687 117.051 19.4496C116.276 18.2113 115.373 17.0511 114.357 15.9866C113.353 14.9089 112.243 13.9282 111.041 13.0586Z" fill="#263238"/>
<path d="M102.239 19.5078C102.371 20.3052 102.431 21.1123 102.417 21.9197C102.393 22.7352 102.234 23.5418 101.945 24.3087C101.647 25.0804 101.198 25.7901 100.624 26.3996C100.056 26.9959 99.493 27.5807 98.9693 28.1999C97.8714 29.3945 97.0336 30.7892 96.5055 32.3014C96.0131 33.8369 96.0704 35.4873 96.6681 36.9876C96.3137 36.2527 96.0961 35.4635 96.0254 34.656C95.9818 34.2506 95.9818 33.842 96.0254 33.4366C96.0664 33.031 96.1434 32.6294 96.2555 32.2364C96.7575 30.6766 97.5927 29.2352 98.7074 28.005C99.2391 27.3781 99.8223 26.7933 100.39 26.2085C100.944 25.6257 101.386 24.9527 101.695 24.2208C102.35 22.7645 102.365 21.117 102.239 19.5078Z" fill="#263238"/>
<path d="M109.063 33.1827C107.873 37.1122 102.929 49.9249 98.9062 51.1939C96.2678 52.0272 85.2461 52.0922 83.0997 49.7911C82.1633 48.7896 82.7386 41.0951 84.2265 41.2518C85.7143 41.4085 94.5816 41.6341 95.6251 41.2518C96.6685 40.8696 103.762 31.111 106.532 28.592C111.313 24.246 109.694 31.0651 109.063 33.1827Z" fill="#FAD2BB"/>
<path d="M87.4712 40.3775L88.4551 51.753C88.4551 51.753 97.263 52.4142 100.814 50.6674C105.127 48.5498 109.796 34.1432 110.38 31.8C111.344 27.9509 110.61 25.7989 108.574 26.6245C107.781 26.9379 106.797 27.7062 105.638 29.0058C104.48 30.3055 97.5764 39.0014 95.2753 40.7865C93.9898 41.7765 87.4712 40.3775 87.4712 40.3775Z" fill="#EBEBEB"/>
<path d="M90.5932 51.0543C90.498 49.3686 89.8552 42.4883 89.6132 41.009C89.6132 40.9058 89.5259 40.8905 89.5299 41.009C89.6807 46.0661 90.3234 49.4183 90.5218 51.0658C90.5297 51.0963 90.5932 51.1002 90.5932 51.0543Z" fill="#263238"/>
<path d="M92.1704 51.8753C95.0111 51.8753 98.7803 51.6689 100.82 50.6712C105.128 48.5498 109.798 34.1432 110.381 31.8C111.345 27.9509 110.611 25.7989 108.576 26.6245C108.516 26.6474 108.453 26.678 108.39 26.7086L92.1704 51.8753Z" fill="#DBDBDB"/>
<path d="M125.407 51.6178C124.669 51.9465 101.253 51.484 101.253 51.484C101.253 51.484 100.46 50.8342 100.753 49.2976C101.011 47.91 103.185 41.1253 103.185 41.1253C102.759 40.5326 102.463 39.8614 102.318 39.1537C102.172 38.446 102.18 37.7171 102.34 37.0124C103.384 33.0371 107.966 27.8998 108.383 27.5519C109.067 27.0145 109.894 26.6724 110.77 26.5643C111.646 26.4562 112.535 26.5865 113.338 26.9403C118.77 29.3714 124.261 42.96 125.808 48.3458C126.119 49.4453 125.975 50.618 125.407 51.6178Z" fill="#C898D9"/>
<path d="M112.501 39.5236C112.223 39.4232 111.932 39.3589 111.637 39.3325C111.88 39.4969 112.147 39.6257 112.43 39.7148C112.709 39.8173 113.001 39.8829 113.299 39.9097C113.054 39.7441 112.785 39.6141 112.501 39.5236ZM116.52 50.0161C116.243 49.913 115.952 49.8499 115.656 49.8288C116.145 50.1602 116.715 50.3631 117.31 50.4175C117.068 50.2489 116.802 50.1138 116.52 50.0161ZM105.308 34.5851C105.077 34.5001 104.836 34.4423 104.59 34.4131C104.581 34.434 104.575 34.4558 104.57 34.4781C104.778 34.605 104.999 34.7113 105.229 34.7953C105.507 34.8949 105.798 34.9579 106.094 34.9826C105.846 34.8152 105.575 34.6815 105.289 34.5851H105.308ZM122.369 42.788C122.092 42.6862 121.802 42.6231 121.508 42.6007C121.752 42.7633 122.019 42.8919 122.301 42.9829C122.579 43.0858 122.87 43.1514 123.166 43.1779C122.917 43.0085 122.643 42.877 122.353 42.788H122.369ZM108.268 50.0161C107.991 49.913 107.699 49.8499 107.403 49.8288C107.648 49.9917 107.915 50.1204 108.197 50.2111C108.476 50.3133 108.768 50.3776 109.066 50.4022C108.815 50.2367 108.541 50.1067 108.252 50.0161H108.268ZM119.214 33.2702L118.964 33.1746C118.689 33.0698 118.399 33.0054 118.104 32.9835C118.349 33.1447 118.616 33.2732 118.897 33.3658C119.051 33.4236 119.211 33.4684 119.373 33.4995C119.298 33.4231 119.262 33.3428 119.214 33.2702ZM115.822 28.7636C115.727 29.0095 115.667 29.2667 115.644 29.5281C115.784 29.3385 115.902 29.1347 115.997 28.9203L115.822 28.7636ZM122.964 50.5971C122.857 50.8631 122.79 51.1424 122.765 51.4266C122.936 51.1923 123.07 50.9346 123.162 50.6621C123.269 50.3962 123.336 50.1169 123.36 49.8327C123.196 50.065 123.066 50.3185 122.976 50.5857L122.964 50.5971ZM112.458 46.6486C112.352 46.9159 112.286 47.1966 112.263 47.4819C112.431 47.2458 112.565 46.9886 112.66 46.7174C112.765 46.4496 112.832 46.1693 112.858 45.8841C112.688 46.1196 112.553 46.3769 112.458 46.6486ZM116.33 36.9779C116.223 37.2461 116.157 37.5283 116.136 37.815C116.303 37.5785 116.436 37.3214 116.532 37.0506C116.639 36.7833 116.704 36.5026 116.727 36.2173C116.56 36.4501 116.427 36.7033 116.33 36.9703V36.9779ZM103.388 42.0235C103.279 42.2902 103.212 42.5711 103.19 42.8568C103.359 42.6216 103.493 42.3641 103.586 42.0923C103.696 41.8257 103.763 41.5448 103.785 41.259C103.615 41.4938 103.481 41.7514 103.388 42.0235ZM106.959 30.0708C106.852 30.3398 106.784 30.6214 106.756 30.908C106.935 30.6743 107.076 30.4168 107.177 30.1435C107.28 29.874 107.345 29.5925 107.371 29.3064C107.197 29.5421 107.055 29.7992 106.951 30.0708H106.959ZM110.502 27.4984C110.229 27.6154 109.975 27.7699 109.748 27.9571C110.044 27.9124 110.331 27.8261 110.601 27.701C110.873 27.5858 111.126 27.4325 111.351 27.2461C111.054 27.2911 110.766 27.376 110.494 27.4984H110.502ZM119.298 46.5645C119.026 46.6801 118.772 46.8319 118.544 47.0156C118.838 46.9722 119.124 46.8872 119.393 46.7633C119.664 46.6484 119.917 46.4965 120.143 46.3122C119.85 46.3567 119.565 46.4417 119.298 46.5645ZM108.09 44.9438C107.818 45.0609 107.565 45.2127 107.336 45.3948C107.629 45.351 107.913 45.266 108.181 45.1426C108.453 45.0278 108.707 44.8759 108.935 44.6915C108.64 44.735 108.354 44.82 108.086 44.9438H108.09ZM110.498 35.5866C110.226 35.7036 109.972 35.8567 109.744 36.0414C110.038 35.9951 110.323 35.9102 110.593 35.7892C110.865 35.6721 111.119 35.519 111.347 35.3343C111.051 35.3778 110.764 35.4628 110.494 35.5866H110.498ZM121.639 38.117C121.517 37.8549 121.358 37.6105 121.166 37.3907C121.213 37.6739 121.302 37.9492 121.428 38.2087C121.548 38.4716 121.707 38.7162 121.9 38.935C121.854 38.6512 121.765 38.3755 121.635 38.117H121.639ZM103.297 47.5698C103.177 47.3069 103.018 47.0623 102.825 46.8435C102.872 47.1254 102.96 47.3994 103.087 47.6577C103.207 47.9206 103.366 48.1652 103.559 48.384C103.512 48.1015 103.422 47.8272 103.293 47.5698H103.297ZM107.169 40.0588C107.048 39.7967 106.889 39.5522 106.697 39.3325C106.742 39.6149 106.83 39.8893 106.959 40.1467C107.079 40.4095 107.238 40.6542 107.431 40.873C107.382 40.5911 107.292 40.3171 107.165 40.0588H107.169ZM124.824 47.1149C124.702 46.8554 124.545 46.6125 124.356 46.3925C124.459 46.9543 124.71 47.481 125.086 47.9215C125.038 47.6417 124.949 47.3701 124.82 47.1149H124.824ZM116.437 42.5854C116.315 42.325 116.156 42.0819 115.965 41.863C116.014 42.1457 116.102 42.4209 116.227 42.6809C116.346 42.9431 116.505 43.1866 116.699 43.4034C116.652 43.1197 116.563 42.8441 116.433 42.5854H116.437ZM113.394 32.005C113.273 31.7436 113.114 31.5003 112.922 31.2826C112.967 31.5649 113.055 31.8393 113.184 32.0967C113.305 32.3588 113.464 32.6033 113.656 32.823C113.607 32.5399 113.517 32.2646 113.39 32.005H113.394Z" fill="white"/>
<path d="M111.254 41.2317C110.084 41.1285 108.908 41.1094 107.735 41.1744C107.152 41.2164 106.576 41.2814 105.997 41.3579C105.708 41.3999 105.422 41.4267 105.132 41.4572C104.829 41.4916 104.523 41.4916 104.22 41.4572C104.215 41.4572 104.209 41.4593 104.206 41.4628C104.202 41.4664 104.2 41.4713 104.2 41.4764C104.2 41.4814 104.202 41.4863 104.206 41.4899C104.209 41.4935 104.215 41.4955 104.22 41.4955C104.5 41.5611 104.785 41.6058 105.073 41.6293C105.351 41.6484 105.631 41.6484 105.91 41.6293C106.501 41.5949 107.1 41.5337 107.679 41.4916C108.87 41.4076 110.06 41.3273 111.25 41.3273C111.31 41.3273 111.31 41.2355 111.254 41.2317Z" fill="#263238"/>
<path d="M113.92 42.7158C112.989 42.4526 112.043 42.2408 111.087 42.0813C110.611 42.0049 110.131 41.9552 109.647 41.9131L108.952 41.8711C108.698 41.8711 108.445 41.8711 108.191 41.8711C108.163 41.8711 108.155 41.9093 108.191 41.9131C108.429 41.9131 108.667 41.9934 108.905 42.0316L109.619 42.1387C110.095 42.2113 110.575 42.2877 111.051 42.3527C112.011 42.4903 112.964 42.6356 113.916 42.8038C113.959 42.7999 113.967 42.7273 113.92 42.7158Z" fill="#263238"/>
<path d="M113.345 26.9219C113.345 26.9219 112.551 85.7868 114.225 88.5428L132 86.2073C132 86.2073 128.945 55.5287 123.966 42.0624C119.351 29.5784 113.345 26.9219 113.345 26.9219Z" fill="#EBEBEB"/>
<path d="M126.494 60.0505C124.797 60.2754 123.088 60.4031 121.375 60.4328C118.995 60.4328 116.614 60.2073 115.916 60.1996C115.853 60.1996 115.825 60.3946 115.865 60.3984C117.679 60.6139 119.504 60.7415 121.332 60.7806C123.005 60.7697 124.674 60.6175 126.319 60.3258C126.319 60.815 126.319 61.1934 126.319 61.6827C124.633 61.9961 121.375 62.5427 116.111 61.8891C116.111 61.6827 116.111 60.5971 116.079 60.299C116.079 60.2531 115.877 60.2455 115.869 60.299C115.825 60.5933 115.702 63.2078 115.698 63.7392C115.698 65.0502 115.777 68.7503 116.119 69.4728C116.884 71.0973 120.161 71.1011 121.07 71.1049C121.979 71.1087 124.903 71.2005 126.002 70.1684C126.585 69.618 126.712 66.6174 126.628 63.9685C126.573 62.7033 126.573 60.0735 126.494 60.0505ZM121.336 70.7762C118.436 70.7762 117.174 70.1952 116.73 69.6295C116.206 68.9491 116.162 67.7641 116.123 66.4569C116.095 65.4325 116.123 62.214 116.123 62.149C117.817 62.4816 122.276 62.9135 126.327 62.0191C126.327 63.548 126.327 64.7597 126.327 66.2849C126.327 67.3895 126.256 69.2434 125.672 69.8856C125.184 70.4092 123.419 70.7762 121.32 70.7762H121.336Z" fill="#DBDBDB"/>
<path d="M101.157 87.3476C100.189 87.8101 90.7622 82.4511 90.7622 82.4511L102.665 41.712C101.677 40.1557 101.292 38.313 101.578 36.5097C102.101 33.6047 107.652 27.7564 108.671 27.3359C108.671 27.3359 107.878 27.8634 107.128 35.6229C105.367 53.7908 102.121 86.8889 101.157 87.3476Z" fill="#EBEBEB"/>
<path d="M108.386 28.0938C107.91 28.7894 107.426 29.4787 106.934 30.1617C106.434 30.8421 105.95 31.5301 105.442 32.2028V32.0461L106.771 33.1928L106.883 33.2846L106.771 33.3878C106.252 33.8694 105.72 34.3434 105.184 34.8174L105.224 34.6989C105.474 35.922 105.736 37.1414 105.962 38.3684C106.188 39.5954 106.422 40.8223 106.629 42.0532C106.311 40.8415 106.022 39.6259 105.74 38.4066C105.458 37.1872 105.192 35.9679 104.923 34.7485V34.6836L104.978 34.6301C105.502 34.1484 106.022 33.6668 106.565 33.1928V33.3878L105.26 32.2411L105.181 32.1684L105.244 32.0843C105.756 31.4116 106.291 30.7503 106.811 30.0852C107.331 29.4201 107.843 28.7474 108.386 28.0938Z" fill="#C7C7C7"/>
<path d="M117.83 30.4869C124.455 37.092 132.053 48.3107 129.042 50.8526C127.058 52.5307 118.06 40.2837 118.227 40.3219C118.584 40.4022 116.703 36.3849 114.394 31.5304C111.819 26.0682 114.049 26.7218 117.83 30.4869Z" fill="#FAD2BB"/>
<path d="M114.583 27.5978C119.293 30.1282 131.822 45.6586 129.854 50.15C127.886 54.6413 117.622 40.3302 117.745 40.1353C117.868 39.9403 115.365 34.566 114.321 32.3796C113.278 30.1932 112.08 26.2523 114.583 27.5978Z" fill="#EBEBEB"/>
<path d="M114.876 34.9178C115.126 35.2006 115.376 35.4873 115.61 35.7816C115.654 35.8352 115.698 35.8925 115.737 35.9498L115.535 35.4873C115.272 34.9535 115.04 34.406 114.841 33.8475C114.841 33.8246 114.872 33.8093 114.888 33.8475C115.204 34.3823 115.489 34.9335 115.741 35.4988C116.011 36.0377 116.285 36.5805 116.535 37.1271C116.785 37.6737 117.058 38.2165 117.304 38.7669C117.568 39.3013 117.793 39.8531 117.975 40.4182C117.976 40.422 117.977 40.426 117.977 40.4301C117.977 40.4341 117.976 40.4381 117.975 40.4418C117.973 40.4456 117.971 40.4489 117.968 40.4518C117.965 40.4546 117.961 40.4568 117.957 40.4583C117.953 40.4598 117.949 40.4606 117.945 40.4606C117.941 40.4605 117.936 40.4597 117.933 40.4581C117.929 40.4565 117.925 40.4541 117.922 40.4512C117.919 40.4483 117.917 40.4449 117.915 40.4411C117.581 39.9165 117.288 39.3683 117.039 38.8013C116.773 38.2586 116.523 37.7081 116.269 37.1577C116.162 36.9284 116.059 36.699 115.955 36.4697L115.828 36.313C115.709 36.1715 115.598 36.0263 115.487 35.8772C115.265 35.5714 115.055 35.2618 114.849 34.9445C114.852 34.9178 114.868 34.9063 114.876 34.9178Z" fill="#263238"/>
<path d="M113.213 27.5625C113.531 28.3907 113.859 29.2163 114.197 30.0394C114.543 30.8612 114.872 31.6869 115.225 32.501L115.269 32.3329L113.813 33.4184L113.694 33.5102L113.777 33.6363C114.174 34.2402 114.57 34.8327 114.999 35.429L114.979 35.2914C114.527 36.6139 114.055 37.9327 113.618 39.2629C113.182 40.5931 112.737 41.9194 112.321 43.2573C112.837 41.9538 113.333 40.6466 113.821 39.3355C114.309 38.0244 114.777 36.7057 115.253 35.387L115.281 35.3143L115.237 35.2493C114.84 34.6492 114.443 34.0453 114.019 33.4528L113.983 33.6669L115.419 32.5507L115.511 32.4819L115.467 32.3825C115.106 31.5684 114.725 30.7695 114.356 29.963C113.987 29.1564 113.602 28.3576 113.213 27.5625Z" fill="#C7C7C7"/>
<path d="M113.861 28.8766C114.06 27.2139 112.671 26.5564 111.39 26.3271C109.862 26.0557 108.835 26.1322 108.025 27.535C107.215 29.0683 106.633 30.7037 106.295 32.3933C106.281 32.4571 106.241 32.5129 106.184 32.5484C106.127 32.5839 106.058 32.5961 105.992 32.5825C105.926 32.5688 105.868 32.5303 105.831 32.4754C105.794 32.4206 105.781 32.3539 105.795 32.2901C106.244 30.3788 106.922 26.8622 108.946 25.9143C110.806 25.0428 114.695 26.1627 114.357 28.9722C114.322 29.2818 113.822 29.1824 113.861 28.869V28.8766Z" fill="#455A64"/>
<path d="M104.708 33.0173C104.66 33.2349 104.68 33.4611 104.766 33.6675C104.852 33.8739 104.999 34.0511 105.19 34.1767C105.38 34.3023 105.605 34.3707 105.836 34.3732C106.066 34.3757 106.293 34.3122 106.486 34.1907C106.679 34.0693 106.831 33.8953 106.922 33.6908C107.012 33.4864 107.038 33.2606 106.995 33.0421C106.953 32.8236 106.844 32.6221 106.682 32.4633C106.521 32.3044 106.314 32.1953 106.088 32.1496C105.938 32.1189 105.784 32.1169 105.633 32.1439C105.483 32.1709 105.339 32.2263 105.211 32.3069C105.082 32.3876 104.972 32.4918 104.885 32.6137C104.799 32.7357 104.739 32.8728 104.708 33.0173Z" fill="#263238"/>
<path d="M105.162 33.1087C105.134 33.2396 105.146 33.3757 105.198 33.4997C105.25 33.6237 105.339 33.7302 105.453 33.8056C105.568 33.881 105.703 33.922 105.842 33.9234C105.981 33.9248 106.117 33.8866 106.233 33.8135C106.349 33.7405 106.441 33.6359 106.495 33.5129C106.55 33.39 106.565 33.2542 106.54 33.1228C106.514 32.9913 106.449 32.8701 106.352 32.7744C106.255 32.6787 106.131 32.6128 105.995 32.585C105.905 32.5666 105.811 32.5655 105.721 32.5818C105.63 32.5981 105.543 32.6316 105.466 32.6802C105.388 32.7289 105.322 32.7918 105.27 32.8653C105.217 32.9388 105.181 33.0215 105.162 33.1087Z" fill="#EBEBEB"/>
<path d="M111.851 34.0349C110.34 38.6638 110.482 39.8182 110.863 40.3725C111.148 40.7644 111.525 41.0865 111.962 41.3128L112.121 41.0108L112.042 41.1599L112.121 41.0108C111.741 40.8084 111.412 40.5278 111.157 40.189C110.883 39.7838 110.693 38.7212 112.188 34.1381L111.851 34.0349Z" fill="#C7C7C7"/>
<path d="M111.576 40.8735C111.529 40.9563 111.516 41.0529 111.539 41.1446C111.561 41.2363 111.618 41.3167 111.699 41.3704L112.096 41.6112C112.182 41.6573 112.283 41.6707 112.379 41.6488C112.475 41.6269 112.56 41.5712 112.615 41.4927C112.663 41.4094 112.677 41.312 112.655 41.2194C112.632 41.1268 112.574 41.0457 112.492 40.9919L112.096 40.755C112.054 40.7293 112.007 40.7119 111.958 40.704C111.909 40.696 111.858 40.6976 111.81 40.7086C111.761 40.7197 111.716 40.7399 111.676 40.7683C111.635 40.7966 111.602 40.8323 111.576 40.8735Z" fill="#263238"/>
<path d="M115.018 34.2875C115.811 37.8614 115.954 39.807 115.458 40.4033C115.172 40.7189 114.817 40.9695 114.419 41.1372L114.55 41.4506C115.007 41.2646 115.415 40.9795 115.74 40.6174C116.327 39.9026 116.22 38.0487 115.371 34.2148L115.018 34.2875Z" fill="#C7C7C7"/>
<path d="M114.972 41.0545C115.011 41.1414 115.015 41.2392 114.984 41.3288C114.952 41.4185 114.887 41.4938 114.802 41.5399L114.377 41.7387C114.287 41.7763 114.185 41.7803 114.092 41.7499C113.999 41.7196 113.921 41.657 113.873 41.5743C113.834 41.4874 113.83 41.3897 113.862 41.3C113.893 41.2103 113.958 41.1351 114.044 41.0889L114.468 40.8901C114.513 40.8686 114.561 40.8558 114.61 40.8525C114.66 40.8491 114.709 40.8552 114.756 40.8705C114.803 40.8858 114.846 40.91 114.883 40.9416C114.92 40.9732 114.951 41.0115 114.972 41.0545Z" fill="#263238"/>
<path d="M115.493 34.0735C115.37 33.2866 115.197 32.5078 114.973 31.7419C114.836 31.4002 114.605 31.1004 114.306 30.8742C114.235 30.8742 114.306 30.2703 114.354 29.7886C114.44 29.4388 114.449 29.0757 114.382 28.7222C114.324 28.6545 114.24 28.6118 114.15 28.6032C114.059 28.5946 113.968 28.6209 113.898 28.6763C113.767 28.7948 113.739 29.2955 113.703 29.7236C113.702 30.0894 113.643 30.4529 113.529 30.8016C113.206 30.9815 112.933 31.2348 112.735 31.5393C112.358 32.2704 112.04 33.0281 111.783 33.806C111.644 34.3029 111.811 34.3717 111.958 34.429C112.168 34.5093 112.307 34.3755 112.501 33.8289C112.807 32.9574 113.211 31.4934 113.846 31.5355C114.477 31.6234 114.64 33.2059 114.814 34.0888C114.917 34.6431 115.032 34.7004 115.255 34.666C115.409 34.6201 115.568 34.5628 115.493 34.0735Z" fill="#263238"/>
<path d="M109.46 34.3714C109.46 34.3714 110.769 32.6628 109.487 31.8945C108.206 31.1262 107.194 33.0183 107.194 33.0183L109.46 34.3714Z" fill="#455A64"/>
<path d="M99.0627 45.6472L98.9 47.7227L98.8445 48.4069L99.4634 48.0591L101.324 47.0003L109.513 34.2984L107.252 32.9453L99.0627 45.6472Z" fill="#455A64"/>
<path d="M98.8883 47.7227L98.8328 48.4069L99.4517 48.059L98.8883 47.7227Z" fill="#37474F"/>
<path d="M106.767 33.2664L109.409 34.8477L109.733 34.3444L107.091 32.7631L106.767 33.2664Z" fill="#263238"/>
<path d="M106.405 33.825L109.048 35.4062L109.372 34.903L106.73 33.3217L106.405 33.825Z" fill="#263238"/>
<path d="M109.048 35.4068L108.195 34.8984L105.704 39.772L106.029 39.944L109.048 35.4068Z" fill="#263238"/>
<path d="M129.043 50.8536C126.309 53.1776 115.95 51.3811 109.423 49.1526C108.182 48.7321 112.804 38.0982 114.077 38.6792C115.424 39.3099 116.81 39.8588 118.227 40.3228C118.584 40.3878 132.038 48.2964 129.043 50.8536Z" fill="#FAD2BB"/>
<path d="M98.3624 38.3847C98.3981 39.6041 101.505 39.2639 101.505 39.2639C101.061 39.568 100.741 40.0112 100.6 40.5176C100.394 41.4235 101.79 42.1269 101.79 42.1269C101.396 42.5321 101.138 43.0422 101.048 43.5908C100.941 44.4738 102.239 45.3797 102.239 45.3797C102.094 45.9464 102.164 46.5444 102.437 47.0654C103.231 48.4262 105.718 48.3765 107.265 48.6402C109.002 48.9672 110.707 49.4312 112.364 50.0278L114.831 39.004C114.831 39.004 108.027 35.4033 106.166 35.5638C104.619 35.6708 98.3069 36.5232 98.3624 38.3847Z" fill="#FAD2BB"/>
<path d="M101.529 39.2293C103.189 38.7749 104.902 38.5182 106.627 38.4648C106.663 38.4648 106.667 38.5184 106.627 38.5222C104.933 38.6177 103.227 39.1491 101.541 39.3096C101.501 39.3096 101.485 39.2408 101.529 39.2293Z" fill="#263238"/>
<path d="M101.816 42.0029C102.199 41.9181 102.593 41.8847 102.986 41.9036C103.383 41.9036 103.816 41.9036 104.232 41.9036C105.065 41.9036 105.895 41.9418 106.728 41.9953C106.731 41.9953 106.735 41.996 106.738 41.9973C106.742 41.9987 106.745 42.0007 106.747 42.0031C106.75 42.0056 106.752 42.0086 106.753 42.0118C106.755 42.0151 106.755 42.0185 106.755 42.0221C106.755 42.0256 106.755 42.0291 106.753 42.0323C106.752 42.0355 106.75 42.0385 106.747 42.041C106.745 42.0435 106.742 42.0454 106.738 42.0468C106.735 42.0481 106.731 42.0488 106.728 42.0488C105.899 42.0488 105.069 42.0488 104.24 42.0488L102.998 42.0947C102.603 42.1398 102.203 42.1398 101.808 42.0947C101.801 42.0888 101.796 42.0814 101.792 42.0731C101.789 42.0648 101.787 42.0558 101.788 42.0469C101.789 42.038 101.792 42.0294 101.797 42.0217C101.801 42.0141 101.808 42.0077 101.816 42.0029Z" fill="#263238"/>
<path d="M102.257 45.3861C102.605 45.314 102.963 45.301 103.316 45.3479L104.451 45.3784C105.208 45.3784 105.966 45.4128 106.728 45.4052C106.764 45.4052 106.768 45.4587 106.728 45.4587C105.958 45.4587 105.189 45.4969 104.419 45.5008H103.284C102.939 45.5326 102.591 45.5041 102.257 45.4167V45.3861Z" fill="#263238"/>
<path d="M129.854 50.1637C127.89 54.6665 112.881 50.4389 112.881 50.4389L113.635 38.406C113.635 38.406 117.603 40.344 117.746 40.149C117.888 39.9541 131.822 45.6571 129.854 50.1637Z" fill="#EBEBEB"/>
<path d="M114.723 49.6814C114.925 48.0875 115.516 41.5359 115.516 40.1254C115.516 40.026 115.453 40.0031 115.437 40.1063C114.715 44.869 114.762 48.1333 114.643 49.6852C114.655 49.7043 114.719 49.7234 114.723 49.6814Z" fill="#263238"/>
<path d="M113.742 38.4092C114.179 38.5457 114.605 38.7131 115.016 38.91C115.389 39.0705 115.762 39.2311 116.135 39.3992C116.928 39.7585 117.722 40.137 118.535 40.523C119.348 40.9091 120.122 41.2875 120.916 41.7003C121.709 42.1131 122.459 42.5489 123.241 42.9541C123.276 42.9541 123.241 43.0229 123.209 43.0076C122.415 42.6253 121.59 42.2775 120.789 41.9029L118.408 40.8059C117.615 40.4428 116.821 40.0834 116.028 39.7165C115.631 39.5407 115.262 39.3572 114.877 39.1737C114.454 38.9998 114.046 38.7954 113.655 38.5621C113.634 38.551 113.618 38.5322 113.612 38.51C113.605 38.4878 113.608 38.4639 113.619 38.4436C113.631 38.4234 113.65 38.4083 113.673 38.4019C113.697 38.3954 113.721 38.3981 113.742 38.4092Z" fill="#263238"/>
<path d="M112.841 50.1767C112.841 50.0964 112.884 50.0773 112.904 50.1767C112.924 50.2761 112.924 50.3105 112.936 50.3563C113.444 50.4634 115.316 50.9297 115.765 51.0367C116.721 51.2661 117.661 51.5375 118.633 51.7018C119.98 51.932 121.339 52.0902 122.704 52.1758C122.71 52.178 122.715 52.1819 122.719 52.187C122.722 52.1921 122.724 52.1982 122.724 52.2045C122.724 52.2107 122.722 52.2168 122.719 52.2219C122.715 52.2271 122.71 52.231 122.704 52.2331C121.334 52.208 119.967 52.1072 118.609 51.9312C117.625 51.7783 116.625 51.5757 115.673 51.3387C115.189 51.2164 114.709 51.0864 114.233 50.9565C113.767 50.8473 113.314 50.6937 112.88 50.4978C112.864 50.4886 112.852 50.4757 112.842 50.4603C112.833 50.4449 112.829 50.4275 112.829 50.4099L112.841 50.1767Z" fill="#263238"/>
<path d="M112.611 27.3341C112.587 27.7163 111.976 30.4722 110.25 31.0036C109.167 31.3361 108.247 27.6742 108.247 27.6742L108.155 27.4564L106.87 24.3984L110.314 21.4208L110.818 21.0156C110.818 21.0156 111.111 21.8718 111.468 22.9268C111.468 22.9765 111.5 23.0262 111.52 23.0797L111.579 23.2517C111.635 23.4084 111.69 23.5728 111.742 23.7372C111.794 23.9015 111.821 23.9818 111.857 24.1194C111.893 24.257 111.936 24.3793 111.976 24.5017C112.254 25.4308 112.466 26.3771 112.611 27.3341Z" fill="#FAD2BB"/>
<path d="M111.468 22.923C111.29 23.8647 110.901 24.7578 110.329 25.5406C109.757 26.3233 109.015 26.977 108.155 27.4564L106.87 24.3984L110.314 21.4208L110.818 21.0156C110.818 21.0156 111.111 21.8527 111.468 22.923Z" fill="#263238"/>
<path d="M101.362 20.1024C101.457 25.8742 105.056 26.4667 106.349 26.4476C107.52 26.4285 111.507 26.2182 112.031 20.4694C112.555 14.7205 109.742 12.9392 107.056 12.8475C104.37 12.7557 101.267 14.3306 101.362 20.1024Z" fill="#FAD2BB"/>
<path d="M102.11 19.368C102.246 19.3365 102.378 19.2957 102.507 19.2457C102.651 19.2203 102.782 19.1505 102.88 19.047C102.905 19.0085 102.916 18.9632 102.911 18.9181C102.906 18.8731 102.885 18.831 102.852 18.7985C102.779 18.7425 102.691 18.7069 102.598 18.6954C102.505 18.684 102.41 18.6971 102.325 18.7335C102.136 18.7776 101.973 18.8899 101.868 19.047C101.845 19.0831 101.833 19.1252 101.835 19.1678C101.836 19.2104 101.851 19.2516 101.877 19.2861C101.903 19.3206 101.939 19.3468 101.981 19.3614C102.022 19.376 102.067 19.3783 102.11 19.368Z" fill="#263238"/>
<path d="M106.007 18.985C105.864 18.985 105.733 18.9583 105.61 18.943C105.469 18.9442 105.33 18.9027 105.214 18.8245C105.181 18.7917 105.161 18.7496 105.156 18.7048C105.151 18.6599 105.162 18.6147 105.186 18.576C105.247 18.5064 105.326 18.4538 105.415 18.4235C105.505 18.3933 105.601 18.3866 105.694 18.404C105.886 18.4133 106.067 18.4894 106.205 18.6181C106.239 18.6509 106.26 18.693 106.267 18.7384C106.274 18.7837 106.266 18.83 106.244 18.8706C106.222 18.9112 106.187 18.9442 106.145 18.9647C106.102 18.9853 106.054 18.9924 106.007 18.985Z" fill="#263238"/>
<path d="M105.312 20.5234C105.312 20.5234 105.348 20.5234 105.348 20.554C105.368 20.9363 105.463 21.3949 105.84 21.4943V21.5173C105.383 21.4905 105.268 20.898 105.312 20.5234Z" fill="#263238"/>
<path d="M105.643 20.0838C106.294 19.9844 106.437 21.2305 105.85 21.3375C105.262 21.4445 105.1 20.1679 105.643 20.0838Z" fill="#263238"/>
<path d="M105.905 20.1184C106.028 20.1757 106.155 20.2866 106.302 20.2828C106.449 20.279 106.568 20.1337 106.655 19.9961H106.679C106.715 20.2369 106.647 20.4968 106.385 20.5618C106.124 20.6268 105.941 20.4318 105.85 20.1796C105.806 20.1643 105.854 20.0955 105.905 20.1184Z" fill="#263238"/>
<path d="M103.054 20.7188C103.054 20.7188 103.026 20.7187 103.026 20.757C103.094 21.1392 103.102 21.5979 102.752 21.7737V21.7967C103.197 21.6782 103.181 21.0742 103.054 20.7188Z" fill="#263238"/>
<path d="M102.636 20.356C101.982 20.3904 102.101 21.6518 102.708 21.6212C103.315 21.5906 103.192 20.3254 102.636 20.356Z" fill="#263238"/>
<path d="M102.373 20.465C102.278 20.5415 102.186 20.6714 102.063 20.6905C101.94 20.7096 101.801 20.5835 101.698 20.4612H101.678C101.678 20.702 101.801 20.9466 102.047 20.9734C102.293 21.0002 102.412 20.7746 102.444 20.53C102.456 20.4994 102.412 20.4344 102.373 20.465Z" fill="#263238"/>
<path d="M103.786 22.4043C103.786 22.4043 103.786 22.993 103.786 23.2682C103.786 23.295 103.861 23.2988 103.957 23.295C104.206 23.3125 104.456 23.2632 104.679 23.1526C104.902 23.042 105.088 22.8743 105.218 22.6681C105.238 22.6375 105.198 22.6146 105.175 22.6337C104.839 22.908 104.423 23.0738 103.984 23.1077C103.957 23.0312 104.048 22.0947 104.004 22.0947C103.784 22.1366 103.57 22.2073 103.369 22.305C103.369 21.0703 103.572 19.8472 103.552 18.6164C103.552 18.6062 103.548 18.5965 103.54 18.5893C103.533 18.5822 103.523 18.5781 103.512 18.5781C103.502 18.5781 103.492 18.5822 103.484 18.5893C103.477 18.5965 103.473 18.6062 103.473 18.6164C103.22 19.9194 103.102 21.2433 103.119 22.5687C103.115 22.7293 103.679 22.4617 103.786 22.4043Z" fill="#263238"/>
<path d="M104.132 23.1875C104.311 23.3749 104.538 23.5144 104.79 23.5927C104.928 23.6346 105.077 23.6346 105.215 23.5927C105.512 23.4894 105.492 23.2104 105.417 22.9925C105.374 22.8737 105.318 22.7597 105.25 22.6523C104.946 22.9408 104.554 23.1283 104.132 23.1875Z" fill="#263238"/>
<path d="M104.794 23.5962C104.932 23.6382 105.08 23.6382 105.218 23.5962C105.516 23.493 105.496 23.214 105.421 22.9961C105.262 23.0151 105.114 23.0844 105.001 23.193C104.887 23.3016 104.814 23.4434 104.794 23.5962Z" fill="#FF9CBD"/>
<path d="M112.072 19.9622C111.115 20.2374 110.449 18.3224 110.449 18.3224C110.449 18.3224 108.465 18.7428 107.199 16.1436C107.443 16.9521 107.925 17.6747 108.588 18.223C108.588 18.223 105.017 18.6052 102.919 16.0977C102.919 16.0977 103.831 17.405 104.506 17.7987C103.562 17.7255 102.672 17.3454 101.982 16.7208C101.982 16.7208 101.74 18.4676 101.371 19.0142C101.371 19.0142 100.181 13.1124 105.974 12.5506C105.974 12.5506 109.564 12.0307 111.445 14.4618C113.325 16.8928 112.072 19.9622 112.072 19.9622Z" fill="#263238"/>
<path d="M111.011 20.2395C111.011 20.2395 112.118 18.3283 112.995 18.6799C113.872 19.0316 113.185 21.7378 112.233 22.1927C112.116 22.2591 111.985 22.302 111.85 22.3187C111.715 22.3354 111.578 22.3256 111.446 22.2899C111.315 22.2542 111.193 22.1933 111.087 22.1109C110.981 22.0285 110.893 21.9263 110.829 21.8105L111.011 20.2395Z" fill="#FAD2BB"/>
<path d="M112.788 19.4492C112.788 19.4492 112.812 19.4492 112.788 19.476C112.121 19.8162 111.824 20.4736 111.637 21.1425C111.67 21.071 111.718 21.0072 111.779 20.9556C111.841 20.9041 111.912 20.8661 111.99 20.8442C112.068 20.8223 112.15 20.8172 112.23 20.8291C112.311 20.841 112.387 20.8697 112.455 20.9132C112.455 20.9132 112.455 20.9514 112.455 20.9476C112.328 20.9222 112.197 20.9354 112.079 20.9855C111.961 21.0355 111.862 21.1198 111.796 21.2266C111.683 21.4028 111.592 21.5915 111.526 21.7885C111.498 21.8535 111.383 21.8306 111.399 21.7618C111.288 20.8941 111.848 19.6289 112.788 19.4492Z" fill="#263238"/>
<path d="M87.9797 53.5001L102.886 52.3267L94.3634 34.4531L79.4575 35.6228L87.9797 53.5001Z" fill="white"/>
<path d="M86.9542 53.5822L101.86 52.4087L93.3419 34.5352L78.436 35.7048L86.9542 53.5822Z" fill="#37474F"/>
<path d="M91.7564 34.6606C91.8196 34.8162 91.9142 34.9581 92.0347 35.0782C92.1553 35.1983 92.2994 35.2941 92.4587 35.3601C92.6055 35.4213 92.6293 35.2378 92.4825 35.1805C92.2764 35.0919 92.1092 34.9363 92.0104 34.7409C91.9934 34.7088 91.9788 34.6756 91.9667 34.6415C91.9175 34.5321 91.8997 34.412 91.9151 34.2937C91.9223 34.2425 91.9476 34.1953 91.9866 34.1599H92.0064H92.0342C92.0678 34.1503 92.1036 34.1503 92.1373 34.1599C92.205 34.1757 92.2676 34.2072 92.3198 34.2516C92.3815 34.3049 92.4361 34.3652 92.4825 34.4313C92.5108 34.4634 92.536 34.498 92.5579 34.5345V34.5574C92.5592 34.5688 92.5592 34.5804 92.5579 34.5918C92.5579 34.5918 92.5579 34.5918 92.5579 34.6147H92.7682C92.709 34.4912 92.6315 34.3766 92.538 34.2745C92.4659 34.1851 92.3748 34.1116 92.2708 34.0589C92.1668 34.0061 92.0523 33.9754 91.935 33.9688C91.8504 33.9737 91.7711 34.0098 91.7135 34.0696C91.6558 34.1293 91.6243 34.2082 91.6255 34.2898C91.6387 34.4215 91.6835 34.5485 91.7564 34.6606Z" fill="#C7C7C7"/>
<path d="M90.5884 34.7504C90.7188 35.0643 90.9726 35.3157 91.2946 35.4499C91.4414 35.5111 91.4652 35.3276 91.3184 35.2703C91.1123 35.1818 90.9452 35.0261 90.8463 34.8307C90.8293 34.7986 90.8148 34.7654 90.8027 34.7313C90.7534 34.6219 90.7356 34.5018 90.7511 34.3835C90.7583 34.3323 90.7835 34.2851 90.8225 34.2497H90.8423H90.8701C90.9038 34.2402 90.9396 34.2402 90.9733 34.2497C91.0409 34.2656 91.1036 34.297 91.1558 34.3414C91.2174 34.3947 91.272 34.4551 91.3184 34.5211C91.3454 34.5542 91.3706 34.5887 91.3938 34.6243V34.6472C91.3951 34.6587 91.3951 34.6702 91.3938 34.6816C91.3938 34.6816 91.3938 34.6816 91.3938 34.7046H91.6041C91.5434 34.5818 91.466 34.4674 91.374 34.3644C91.3019 34.275 91.2107 34.2014 91.1067 34.1487C91.0027 34.096 90.8882 34.0653 90.7709 34.0586C90.6864 34.0635 90.607 34.0996 90.5494 34.1594C90.4918 34.2192 90.4603 34.2981 90.4615 34.3797C90.4747 34.5108 90.518 34.6375 90.5884 34.7504Z" fill="#C7C7C7"/>
<path d="M89.4221 34.8442C89.5519 35.1571 89.8041 35.4083 90.1243 35.5437C90.2751 35.6049 90.2989 35.4214 90.1521 35.364C89.946 35.2755 89.7789 35.1199 89.68 34.9245C89.6614 34.8931 89.6467 34.8598 89.6363 34.8251C89.5871 34.7157 89.5693 34.5956 89.5848 34.4773C89.592 34.4261 89.6172 34.3789 89.6562 34.3435H89.676H89.7038C89.7375 34.3339 89.7733 34.3339 89.807 34.3435C89.8746 34.3593 89.9373 34.3908 89.9895 34.4352C90.0511 34.4885 90.1057 34.5488 90.1521 34.6149C90.1791 34.648 90.2043 34.6824 90.2275 34.7181V34.741C90.2356 34.7516 90.2423 34.7632 90.2473 34.7754C90.2473 34.7754 90.2473 34.7754 90.2473 34.7983H90.4576C90.3969 34.6756 90.3196 34.5612 90.2275 34.4581C90.1554 34.3687 90.0643 34.2952 89.9603 34.2425C89.8563 34.1897 89.7418 34.159 89.6244 34.1523C89.5399 34.1573 89.4606 34.1934 89.4029 34.2532C89.3453 34.3129 89.3138 34.3918 89.315 34.4734C89.3218 34.6031 89.3584 34.7297 89.4221 34.8442Z" fill="#C7C7C7"/>
<path d="M88.2544 34.934C88.3841 35.2469 88.6364 35.4982 88.9566 35.6335C89.1074 35.6947 89.1272 35.5112 88.9844 35.4539C88.7781 35.3642 88.61 35.209 88.5083 35.0143C88.4927 34.9821 88.4794 34.9489 88.4686 34.9149C88.4194 34.8055 88.4016 34.6854 88.417 34.5671C88.4242 34.5159 88.4495 34.4687 88.4885 34.4333H88.5162C88.5513 34.4238 88.5883 34.4238 88.6233 34.4333C88.6901 34.4485 88.7516 34.4801 88.8019 34.525C88.8658 34.5772 88.9218 34.6377 88.9685 34.7047C88.9955 34.7378 89.0207 34.7723 89.0439 34.8079V34.8308C89.052 34.8415 89.0586 34.853 89.0637 34.8652C89.0637 34.8652 89.0637 34.8652 89.0637 34.8882H89.274C89.2133 34.7654 89.136 34.651 89.0439 34.548C88.9718 34.4586 88.8807 34.385 88.7767 34.3323C88.6727 34.2796 88.5582 34.2488 88.4408 34.2422C88.3563 34.2471 88.277 34.2832 88.2193 34.343C88.1617 34.4028 88.1302 34.4817 88.1314 34.5633C88.1434 34.6941 88.1854 34.8208 88.2544 34.934Z" fill="#C7C7C7"/>
<path d="M87.0903 35.0278C87.2201 35.3407 87.4723 35.5919 87.7926 35.7273C87.9433 35.7884 87.9632 35.605 87.8203 35.5476C87.6141 35.458 87.446 35.3028 87.3442 35.1081C87.3286 35.0759 87.3154 35.0427 87.3046 35.0087C87.254 34.8996 87.2348 34.7795 87.249 34.6608C87.2595 34.6099 87.2858 34.5633 87.3244 34.5271H87.3522C87.3872 34.5176 87.4243 34.5176 87.4593 34.5271C87.526 34.5423 87.5875 34.5739 87.6378 34.6188C87.7017 34.671 87.7578 34.7315 87.8045 34.7985C87.8314 34.8316 87.8566 34.866 87.8798 34.9017V34.9246L87.8997 34.959C87.8997 34.959 87.8997 34.959 87.8997 34.9819H88.11C88.0493 34.8592 87.9719 34.7448 87.8798 34.6417C87.8077 34.5523 87.7166 34.4788 87.6126 34.4261C87.5086 34.3733 87.3941 34.3426 87.2768 34.3359C87.1922 34.3408 87.1129 34.377 87.0553 34.4367C86.9976 34.4965 86.9661 34.5754 86.9673 34.657C86.979 34.7879 87.0211 34.9146 87.0903 35.0278Z" fill="#C7C7C7"/>
<path d="M85.9223 35.1176C86.0521 35.4305 86.3043 35.6817 86.6245 35.8171C86.7753 35.8783 86.7951 35.6948 86.6523 35.6375C86.446 35.5478 86.278 35.3926 86.1762 35.1979C86.1606 35.1657 86.1473 35.1325 86.1365 35.0985C86.0859 34.9895 86.0667 34.8693 86.081 34.7507C86.0914 34.6998 86.1177 34.6531 86.1564 34.6169H86.1841C86.2192 34.6074 86.2562 34.6074 86.2913 34.6169C86.358 34.6321 86.4195 34.6637 86.4698 34.7086C86.5337 34.7608 86.5897 34.8213 86.6364 34.8883C86.6634 34.9214 86.6886 34.9558 86.7118 34.9915V35.0144C86.7211 35.025 86.7291 35.0365 86.7356 35.0488C86.7356 35.0488 86.7356 35.0488 86.7356 35.0718H86.9459C86.8852 34.949 86.8078 34.8346 86.7158 34.7316C86.6437 34.6422 86.5525 34.5686 86.4485 34.5159C86.3445 34.4632 86.23 34.4324 86.1127 34.4258C86.0282 34.4307 85.9488 34.4668 85.8912 34.5266C85.8336 34.5864 85.8021 34.6653 85.8033 34.7469C85.8138 34.8775 85.8544 35.0041 85.9223 35.1176Z" fill="#C7C7C7"/>
<path d="M84.7563 35.2114C84.886 35.5243 85.1383 35.7755 85.4585 35.9109C85.6093 35.972 85.6291 35.7924 85.4823 35.7312C85.2772 35.6414 85.1104 35.4861 85.0102 35.2917C84.9946 35.2595 84.9813 35.2262 84.9705 35.1923C84.9199 35.0832 84.9007 34.9631 84.915 34.8444C84.9254 34.7935 84.9517 34.7469 84.9903 34.7107H85.0181C85.0532 34.7012 85.0902 34.7012 85.1252 34.7107C85.192 34.7259 85.2535 34.7575 85.3038 34.8024C85.3677 34.8546 85.4237 34.915 85.4704 34.982C85.4974 35.0151 85.5226 35.0496 85.5458 35.0852V35.1082C85.5551 35.1187 85.5631 35.1303 85.5696 35.1426C85.5696 35.1426 85.5696 35.1426 85.5696 35.1655H85.7799C85.7192 35.0428 85.6418 34.9284 85.5498 34.8253C85.4773 34.7363 85.3861 34.663 85.2822 34.6103C85.1782 34.5576 85.0639 34.5267 84.9467 34.5195C84.8622 34.5244 84.7828 34.5605 84.7252 34.6203C84.6676 34.6801 84.6361 34.759 84.6372 34.8406C84.6477 34.9712 84.6884 35.0979 84.7563 35.2114Z" fill="#C7C7C7"/>
<path d="M83.5922 35.3012C83.722 35.6141 83.9742 35.8653 84.2945 36.0007C84.4452 36.0619 84.4651 35.8822 84.3183 35.8211C84.1131 35.7312 83.9464 35.576 83.8461 35.3815C83.8292 35.3494 83.8146 35.3162 83.8025 35.2821C83.755 35.1722 83.7373 35.0526 83.7509 34.9343C83.7614 34.8834 83.7877 34.8367 83.8263 34.8005H83.8541C83.8891 34.791 83.9261 34.791 83.9612 34.8005C84.0279 34.8157 84.0894 34.8473 84.1397 34.8922C84.2036 34.9444 84.2597 35.0049 84.3064 35.0719C84.3333 35.105 84.3585 35.1394 84.3817 35.1751V35.198C84.391 35.2086 84.399 35.2201 84.4055 35.2324C84.4055 35.2324 84.4055 35.2324 84.4055 35.2554H84.6158C84.5539 35.1324 84.4752 35.018 84.3817 34.9152C84.3104 34.8259 84.22 34.7524 84.1167 34.6996C84.0133 34.6469 83.8994 34.6161 83.7826 34.6094C83.6981 34.6143 83.6188 34.6504 83.5611 34.7102C83.5035 34.77 83.472 34.8489 83.4732 34.9305C83.4837 35.0611 83.5244 35.1877 83.5922 35.3012Z" fill="#C7C7C7"/>
<path d="M82.4243 35.395C82.553 35.7086 82.8055 35.9601 83.1265 36.0945C83.2733 36.1556 83.2971 35.976 83.1503 35.9148C82.9452 35.825 82.7784 35.6697 82.6782 35.4753C82.6613 35.4432 82.6467 35.4099 82.6346 35.3759C82.5871 35.266 82.5694 35.1463 82.583 35.028C82.5935 34.9771 82.6198 34.9304 82.6584 34.8942H82.6861C82.7212 34.8848 82.7582 34.8848 82.7933 34.8942C82.86 34.9094 82.9215 34.9411 82.9718 34.986C83.0346 35.0392 83.0906 35.0995 83.1384 35.1656C83.1654 35.1979 83.1893 35.2324 83.2099 35.2688V35.2918C83.2191 35.3023 83.2271 35.3139 83.2337 35.3262C83.2337 35.3262 83.2337 35.3262 83.2337 35.3491H83.4439C83.382 35.2261 83.3033 35.1117 83.2099 35.0089C83.1385 34.9196 83.0481 34.8461 82.9448 34.7933C82.8414 34.7406 82.7275 34.7098 82.6108 34.7031C82.5262 34.708 82.4469 34.7441 82.3893 34.8039C82.3316 34.8637 82.3001 34.9426 82.3013 35.0242C82.3096 35.1557 82.3519 35.2832 82.4243 35.395Z" fill="#C7C7C7"/>
<path d="M81.2582 35.4848C81.3869 35.7984 81.6394 36.05 81.9605 36.1843C82.1073 36.2455 82.1311 36.0658 81.9843 36.0047C81.7791 35.9148 81.6124 35.7596 81.5121 35.5651C81.4959 35.534 81.4814 35.5021 81.4685 35.4695C81.4193 35.3588 81.4015 35.2374 81.4169 35.1179C81.4258 35.0664 81.4523 35.0193 81.4923 34.9841H81.5201C81.5551 34.9746 81.5922 34.9746 81.6272 34.9841C81.6939 34.9993 81.7554 35.0309 81.8057 35.0758C81.8685 35.1291 81.9245 35.1894 81.9724 35.2555C81.9993 35.2877 82.0232 35.3223 82.0438 35.3587V35.3816C82.0531 35.3922 82.061 35.4037 82.0676 35.416C82.0676 35.416 82.0676 35.416 82.0676 35.4389H82.2818C82.2199 35.316 82.1412 35.2016 82.0477 35.0988C81.9764 35.0095 81.886 34.9359 81.7827 34.8832C81.6793 34.8304 81.5654 34.7997 81.4487 34.793C81.3641 34.7979 81.2848 34.834 81.2271 34.8938C81.1695 34.9536 81.138 35.0325 81.1392 35.114C81.1463 35.2452 81.1872 35.3727 81.2582 35.4848Z" fill="#C7C7C7"/>
<path d="M80.0903 35.5629C80.219 35.8765 80.4715 36.1281 80.7926 36.2624C80.9394 36.3236 80.9632 36.144 80.8164 36.0828C80.6112 35.9929 80.4445 35.8377 80.3442 35.6432C80.3273 35.6111 80.3127 35.5779 80.3006 35.5438C80.2512 35.4345 80.2333 35.3143 80.249 35.196C80.2562 35.1448 80.2814 35.0976 80.3204 35.0622H80.3482C80.3832 35.0527 80.4203 35.0527 80.4553 35.0622C80.5221 35.0774 80.5836 35.109 80.6339 35.1539C80.6967 35.2072 80.7526 35.2675 80.8005 35.3336C80.8275 35.3659 80.8514 35.4004 80.8719 35.4368V35.4597C80.8812 35.4703 80.8892 35.4818 80.8957 35.4941C80.8957 35.4941 80.8957 35.4941 80.8957 35.5171H81.11C81.0481 35.3941 80.9693 35.2797 80.8759 35.1769C80.8045 35.0876 80.7141 35.0141 80.6108 34.9613C80.5074 34.9086 80.3935 34.8778 80.2768 34.8711C80.1922 34.876 80.1129 34.9121 80.0553 34.9719C79.9976 35.0317 79.9661 35.1106 79.9673 35.1922C79.9756 35.3237 80.0179 35.4512 80.0903 35.5629Z" fill="#C7C7C7"/>
<path d="M78.9263 35.6684C79.055 35.982 79.3075 36.2336 79.6286 36.3679C79.7754 36.4291 79.7992 36.2494 79.6524 36.1883C79.4472 36.0984 79.2805 35.9432 79.1802 35.7487C79.164 35.7176 79.1495 35.6857 79.1366 35.6531C79.0874 35.5424 79.0696 35.421 79.085 35.3015C79.0922 35.2503 79.1174 35.2031 79.1564 35.1677H79.1842C79.2192 35.1582 79.2563 35.1582 79.2913 35.1677C79.3581 35.1829 79.4196 35.2145 79.4699 35.2594C79.5327 35.3127 79.5886 35.373 79.6365 35.4391C79.6635 35.4713 79.6874 35.5059 79.7079 35.5423V35.5652C79.7175 35.5748 79.7244 35.5867 79.7277 35.5996C79.7277 35.5996 79.7277 35.5996 79.7277 35.6225H79.942C79.8801 35.4996 79.8014 35.3852 79.7079 35.2824C79.6361 35.1926 79.5451 35.1188 79.441 35.066C79.337 35.0132 79.2223 34.9827 79.1049 34.9766C79.021 34.9824 78.9427 35.0189 78.8859 35.0786C78.8291 35.1383 78.7981 35.2167 78.7994 35.2976C78.8089 35.4295 78.8525 35.557 78.9263 35.6684Z" fill="#C7C7C7"/>
<path d="M79.8385 39.8008C79.3069 41.4559 77.6723 43.6232 77.7001 44.9304C77.6953 45.2476 77.797 45.5577 77.99 45.8146C78.1831 46.0715 78.4571 46.2615 78.7713 46.3562C78.7713 46.3562 77.5572 47.1665 77.7834 48.3324C77.9024 48.9287 78.9974 49.2765 78.9974 49.2765C78.9974 49.2765 78.0532 49.9645 78.319 50.9889C78.5332 51.8031 79.6005 52.0286 79.6005 52.0286C79.6005 52.0286 79.0133 53.0989 79.5053 53.8596C80.509 55.3885 87.9203 54.3832 88.6741 51.5967C89.0273 50.2971 87.23 50.6411 87.23 50.6411C87.23 50.6411 89.6898 49.5441 89.5073 48.0648C89.3248 46.5855 87.0237 47.1704 87.0237 47.1704C87.0237 47.1704 89.4042 46.0886 89.0511 44.575C88.69 43.0001 86.4881 43.9634 86.4881 43.9634C86.4881 43.9634 87.9759 42.6599 87.4323 41.5591C86.5396 39.7434 83.7743 42.5644 82.0921 42.4153L80.8145 39.9537L79.8385 39.8008Z" fill="#FAD2BB"/>
<path d="M78.6863 42.2552C79.0474 40.646 76.8057 39.0329 76.9208 37.4466C77.0795 35.3022 79.8171 37.007 80.805 39.9541L81.1581 42.3699L78.6863 42.2552Z" fill="#FAD2BB"/>
<path d="M79.762 52.0868C79.7382 52.0868 79.7343 52.1251 79.762 52.1251C82.384 52.3804 85.0244 51.8604 87.332 50.6343C87.4074 50.5923 87.3677 50.4623 87.2804 50.4929C84.868 51.3732 82.3352 51.9102 79.762 52.0868Z" fill="#263238"/>
<path d="M78.9613 49.2955C78.9335 49.2955 78.9375 49.3452 78.9613 49.3452C81.5639 49.5745 84.7538 48.9438 87.1145 47.2237C87.1978 47.1664 87.2097 47.0326 87.1145 47.0938C85.4521 48.1258 81.3775 49.1617 78.9613 49.2955Z" fill="#263238"/>
<path d="M86.6171 43.7899C84.2842 45.3533 81.6697 46.0413 78.8765 46.3739C78.8408 46.3739 78.8527 46.4274 78.8765 46.4312C80.285 46.6262 82.0505 46.2363 83.3836 45.8196C84.6365 45.4576 85.7682 44.7839 86.6647 43.8664C86.7084 43.832 86.6647 43.7555 86.6171 43.7899Z" fill="#263238"/>
<path d="M79.9314 149.349H40.6135V145.576L44.0137 141.753H79.9314V149.349Z" fill="#263238"/>
<path d="M95.3635 149.349H79.9299V141.753H91.396L95.3635 145.553V149.349Z" fill="#37474F"/>
<path d="M55.1252 108.859H49.0549V141.747H55.1252V108.859Z" fill="#263238"/>
<path d="M68.7576 108.859H55.1252V141.747H68.7576V108.859Z" fill="#37474F"/>
<path d="M79.7183 130.367H62.0471V133.012H79.7183V130.367Z" fill="#263238"/>
<path d="M86.6542 130.367H79.7151V133.012H86.6542V130.367Z" fill="#37474F"/>
<path d="M91.067 93.531H34.1057V100.82H91.067V93.531Z" fill="#37474F"/>
<path d="M69.2669 93.5285H34.1069L17.0586 52.9805H52.2185L69.2669 93.5285Z" fill="#37474F"/>
<path d="M69.2661 93.5285H42.6283L25.584 52.9805H52.2178L69.2661 93.5285Z" fill="#455A64"/>
<path d="M59.8147 100.816H91.0667V93.5268H59.8147V100.816Z" fill="#455A64"/>
<path d="M52.2185 37.3789H19.3398V52.9819H52.2185V37.3789Z" fill="#37474F"/>
<path d="M52.2217 37.3789H25.584V52.9819H52.2217V37.3789Z" fill="#37474F"/>
<path d="M55.5605 45.4612C55.5605 49.6926 51.3153 52.5709 51.3153 52.5709H26.7168V38.3516H51.3153C51.3153 38.3516 55.5605 41.2298 55.5605 45.4612Z" fill="#455A64"/>
<path d="M26.7285 52.5671V38.3516C26.7285 38.3516 30.9777 41.2298 30.9777 45.4612C30.9777 49.6926 26.7285 52.5671 26.7285 52.5671Z" fill="#37474F"/>
<path d="M30.1758 57.4272C32.0802 57.3508 33.9806 57.3126 35.881 57.282C37.7815 57.2514 39.6859 57.2552 41.5903 57.2399C43.4947 57.2246 45.3911 57.2399 47.2955 57.282L50.1482 57.3355C51.1003 57.3661 52.0486 57.3852 53.0008 57.4272C52.0486 57.4731 51.1003 57.4922 50.1482 57.5228L47.2955 57.5763C45.3911 57.6069 43.4907 57.603 41.5903 57.6183C39.6898 57.6336 37.7854 57.6183 35.881 57.5763C33.9766 57.5342 32.0802 57.5075 30.1758 57.4272Z" fill="#37474F"/>
<path d="M34.1057 67.185C36.0061 67.1047 37.9105 67.0665 39.811 67.0359C41.7114 67.0053 43.6158 67.0091 45.5162 66.9938C47.4167 66.9785 49.3211 66.9938 51.2255 67.0359L54.0781 67.0894C55.0263 67.1238 55.9785 67.1391 56.9307 67.185C55.9785 67.227 55.0263 67.2461 54.0781 67.2767L51.2255 67.3302C49.3211 67.3608 47.4206 67.3608 45.5162 67.3761C43.6118 67.3914 41.7154 67.3761 39.811 67.3302C37.9066 67.2843 36.0061 67.2614 34.1057 67.185Z" fill="#37474F"/>
<path d="M38.0391 76.9427C39.9395 76.8624 41.8399 76.828 43.7443 76.7975C45.6487 76.7669 47.5491 76.7669 49.4496 76.7516C51.35 76.7363 53.2544 76.7516 55.1548 76.7975L58.0114 76.8471C58.9597 76.8815 59.9119 76.9007 60.8641 76.9427C59.9119 76.9847 58.9597 77.0039 58.0114 77.0344L55.1548 77.088C53.2544 77.1185 51.354 77.1185 49.4496 77.1338C47.5452 77.1491 45.6448 77.1338 43.7443 77.088C41.8439 77.0421 39.9474 77.023 38.0391 76.9427Z" fill="#37474F"/>
<path d="M41.967 86.6966C43.8714 86.6202 45.7719 86.5819 47.6763 86.5514C49.5807 86.5208 51.4771 86.5208 53.3815 86.5055C55.2859 86.4902 57.1864 86.5055 59.0868 86.5514L61.9394 86.6049C62.8916 86.6355 63.8438 86.6546 64.792 86.6966C63.8438 86.7425 62.8916 86.7578 61.9394 86.7922L59.0868 86.8457C57.1864 86.8763 55.282 86.8724 53.3815 86.8877C51.4811 86.903 49.5767 86.8877 47.6763 86.8457C45.7758 86.8036 43.8714 86.7845 41.967 86.6966Z" fill="#37474F"/>
<path d="M93.5308 100.816H34.1057V106.771H93.5308V100.816Z" fill="#263238"/>
<path d="M12 52.9805H19.3518L41.4586 106.769H34.1069L12 52.9805Z" fill="#263238"/>
<path d="M19.3399 37.3789L12 40.1578V52.9819H19.3399V37.3789Z" fill="#263238"/>
<path d="M71.0091 106.769H41.4592V108.856H71.0091V106.769Z" fill="#A6A6A6"/>
<path d="M115.955 144.658C114.999 144.968 87.6434 145.017 86.596 144.383C86.1993 144.146 85.9572 140.308 85.8025 135.664C85.7708 134.659 85.743 133.623 85.7192 132.572C85.5612 127.858 85.1347 123.155 84.4417 118.486L102.744 118.402L103.517 132.488L103.442 135.58C103.442 135.58 113.924 140.075 114.991 140.889C116.059 141.703 116.916 144.349 115.955 144.658Z" fill="#FAD2BB"/>
<path d="M85.885 137.75C86.0397 141.408 86.2818 144.183 86.5992 144.385C87.6426 145.016 114.998 144.966 115.959 144.657C116.919 144.347 116.062 141.702 114.998 140.888C114.526 140.532 112.249 139.462 109.841 138.38C109.841 138.38 112.221 140.23 111.344 140.498C106.71 141.885 90.9158 138.793 85.885 137.75Z" fill="#C898D9"/>
<path d="M50.346 71.1801H60.2965L63.1055 76.7723C63.1055 76.7723 88.1324 76.6347 94.8454 83.8208C103.026 92.6123 103.479 131.18 103.479 131.18H85.6805C85.6805 131.18 82.9985 99.9246 80.9195 97.3139C78.8406 94.7032 54.9086 95.4638 48.4099 89.9252C42.3753 84.7764 45.3113 69.7773 44.8391 71.1954L50.346 71.1801Z" fill="#263238"/>
<path d="M92.1032 152.998C91.1034 153.109 64.3546 147.586 63.4738 146.752C63.1366 146.439 63.7436 142.64 64.6125 138.068C64.7989 137.082 65.0092 136.065 65.2076 135.029C66.5605 128.321 68.1515 121.234 68.1515 121.234L86.0568 124.877L82.6209 138.573L81.8671 141.581C81.8671 141.581 91.1272 148.109 91.9921 149.119C92.8571 150.128 93.111 152.91 92.1032 152.998Z" fill="#FAD2BB"/>
<path d="M68.1555 121.234C68.1555 121.234 66.5685 128.321 65.2116 135.029C65.0013 136.065 64.8149 137.082 64.6125 138.068C64.4776 138.775 64.3507 139.463 64.2158 140.124C63.5651 143.733 63.1723 146.489 63.454 146.752C64.3348 147.586 91.0876 153.105 92.0874 152.998C93.0872 152.891 92.8373 150.131 91.9803 149.122C91.5836 148.675 89.5998 147.169 87.4812 145.617C84.7714 143.637 81.8632 141.585 81.8632 141.585L82.6131 138.576L86.0489 124.881L68.1555 121.234Z" fill="#FAD2BB"/>
<path d="M64.2295 140.125C63.5788 143.733 63.186 146.489 63.4677 146.753C64.3485 147.586 91.1013 153.105 92.1011 152.998C93.1009 152.891 92.851 150.132 91.994 149.122C91.5972 148.675 89.6135 147.169 87.4948 145.617C87.4948 145.617 89.4191 147.911 88.5026 147.995C83.6781 148.408 68.9071 142.169 64.2295 140.125Z" fill="#C898D9"/>
<path d="M83.5904 134.646L65.5145 131.179C65.5145 131.179 73.1162 99.163 71.8149 97.5423C69.6645 94.8666 53.5208 94.9851 45.4588 89.5955C38.9085 85.215 42.146 71.1677 42.146 71.1677H59.5791C59.5791 71.1677 61.2971 74.5429 61.7176 76.1368C61.7176 76.1368 82.3684 80.1504 89.2282 86.6332C96.3221 93.3032 83.5904 134.646 83.5904 134.646Z" fill="#263238"/>
<path d="M90.7314 88.5211C89.9351 87.0191 88.7572 85.7358 87.3075 84.7904C77.3888 78.7128 63.2962 76.5149 62.955 76.3811C62.8717 76.3506 62.84 76.4385 62.9272 76.4652C65.8195 77.3864 85.2999 81.3655 89.807 88.0051C91.4734 90.4629 91.1242 93.7043 90.9496 96.5367C90.7314 99.9768 90.3109 103.394 89.7594 106.796C89.2079 110.198 88.5692 113.558 87.8233 116.914C87.0774 120.27 86.3156 123.66 85.5618 127.036C85.4666 127.456 85.3872 127.88 85.296 128.301C85.2942 128.305 85.2936 128.31 85.2942 128.315C85.2949 128.32 85.2968 128.325 85.2997 128.329C85.3026 128.333 85.3065 128.336 85.311 128.339C85.3156 128.341 85.3206 128.342 85.3257 128.342C85.3309 128.342 85.3359 128.341 85.3404 128.339C85.345 128.336 85.3489 128.333 85.3518 128.329C85.3547 128.325 85.3566 128.32 85.3572 128.315C85.3579 128.31 85.3573 128.305 85.3555 128.301C86.2958 124.91 87.2599 121.528 88.0772 118.103C88.8945 114.678 89.6245 111.28 90.2355 107.839C90.8522 104.391 91.2891 100.914 91.5448 97.4234C91.755 94.4878 91.9852 91.2961 90.7314 88.5211Z" fill="#37474F"/>
<path d="M38.0882 51.4684C37.8899 50.5854 37.7232 49.691 37.5963 48.7927C37.3076 47.5205 37.1232 46.2284 37.0448 44.9283C36.9218 42.7839 36.9218 40.1847 38.8579 38.7513C39.7786 38.1227 40.8262 37.6877 41.9327 37.4746C43.0635 37.2261 44.2894 37.0924 45.3964 37.5166C45.8312 37.683 46.2197 37.9447 46.5311 38.2811C47.3329 38.4253 48.104 38.6979 48.8124 39.0877C49.6812 39.4087 50.3041 40.2344 50.7326 40.9989C51.2156 41.9236 51.5704 42.9054 51.788 43.9192C52.0613 44.8375 52.1409 45.7993 52.0221 46.7477C51.8504 47.5777 51.6062 48.3923 51.2921 49.1826C50.9028 50.1372 50.6906 51.1502 50.6652 52.1756C50.6652 52.21 50.6096 52.2176 50.6096 52.1756C50.5224 50.5243 51.3397 49.003 51.7205 47.4281C51.9432 46.5358 51.9662 45.6081 51.788 44.7066C51.5992 43.6607 51.3001 42.636 50.8953 41.6487C50.5625 40.7505 49.9807 39.9573 49.2131 39.3552L49.2567 39.3896C50.1574 40.1312 50.5977 41.2397 50.927 42.3061C51.3225 43.493 51.535 44.7293 51.5579 45.9756C51.5131 47.1065 51.3048 48.2257 50.9389 49.3011C50.5554 50.3739 50.3207 51.4908 50.2407 52.6228C50.2857 53.8151 50.5545 54.9897 51.0342 56.0897C51.4955 57.1523 51.8206 58.2652 52.0022 59.4037C52.1192 60.4428 51.8943 61.4911 51.3595 62.4005C50.3597 64.0823 47.999 65.5119 46.0351 64.4302C45.5524 64.1651 45.1071 63.8413 44.71 63.4669C44.2801 63.0592 43.8722 62.6306 43.488 62.1826C42.6807 61.2228 41.97 60.1912 41.3654 59.1017C40.1897 56.9266 39.2434 54.6434 38.5405 52.2864C38.358 51.7092 38.1835 51.1397 38.0208 50.5472C38.2964 51.8825 38.6487 53.2019 39.0761 54.4996C39.8696 56.8312 40.8298 59.1897 42.2977 61.2079C42.6753 61.7313 43.086 62.2317 43.5277 62.7063C44.0117 63.2261 44.5394 63.6886 45.0552 64.1741C45.059 64.1802 45.0607 64.1874 45.0601 64.1945C45.0595 64.2017 45.0566 64.2085 45.0518 64.2139C45.047 64.2194 45.0405 64.2233 45.0333 64.2251C45.0261 64.2268 45.0184 64.2264 45.0115 64.2238C44.0462 63.4976 43.1915 62.6445 42.4723 61.6895C41.7158 60.7137 41.0694 59.663 40.5441 58.5551C39.4518 56.2893 38.628 53.912 38.0882 51.4684Z" fill="#A3564F"/>
<path d="M48.4656 58.0792C52.0364 65.273 57.5155 70.9301 60.6736 71.3391C65.1886 71.9201 72.9014 64.4321 75.5001 60.8352C76.2936 59.7382 70.029 54.1536 68.6165 54.6008C66.7836 55.1819 60.868 61.9513 60.1896 61.7105C59.7055 61.5347 54.5835 57.7046 52.0483 55.7476C46.95 51.822 47.3984 55.9272 48.4656 58.0792Z" fill="#FAD2BB"/>
<path d="M74.5114 62.124C75.3287 61.2946 78.8003 57.1549 79.4787 55.7865C80.1572 54.4181 81.8156 50.4084 80.7959 49.8044C79.7763 49.2005 79.1891 50.3396 79.1891 50.3396C79.1891 50.3396 79.6096 48.5316 78.5265 48.0117C77.4434 47.4919 76.5904 49.296 76.5904 49.296C76.5904 49.296 76.884 47.4116 75.7612 46.9682C74.6384 46.5248 74.1028 48.4742 74.1028 48.4742C74.1028 48.4742 74.4519 46.7618 73.3688 46.7733C72.0635 46.7733 71.7818 50.0108 70.9248 51.448C70.7264 51.7768 66.4495 57.7971 66.4495 57.7971L74.5114 62.124Z" fill="#FAD2BB"/>
<path d="M74.1485 48.3119C73.9422 50.6856 73.4225 51.687 71.9545 53.5562C71.9267 53.5944 71.9545 53.6441 72.01 53.6059C73.6209 51.9011 74.458 50.7353 74.2715 48.3157C74.2596 48.1972 74.1604 48.1972 74.1485 48.3119Z" fill="#263238"/>
<path d="M76.6014 49.1092C76.1611 51.5555 75.6096 52.6487 74.2209 54.7166C74.2209 54.7434 74.2527 54.7816 74.2725 54.751C75.8119 52.8398 76.6213 51.6511 76.7284 49.1474C76.7324 49.0365 76.6213 48.9983 76.6014 49.1092Z" fill="#263238"/>
<path d="M79.1134 50.4445C78.5103 52.7838 77.9589 54.007 76.3362 55.8456C76.3301 55.8494 76.3251 55.8544 76.3214 55.8604C76.3177 55.8663 76.3155 55.873 76.3149 55.8799C76.3143 55.8868 76.3153 55.8938 76.3178 55.9002C76.3204 55.9067 76.3244 55.9125 76.3297 55.9173C76.3349 55.922 76.3412 55.9256 76.3481 55.9277C76.3549 55.9297 76.3622 55.9303 76.3693 55.9293C76.3764 55.9282 76.3832 55.9257 76.3891 55.9218C76.3951 55.9179 76.4 55.9127 76.4036 55.9067C78.2406 54.1866 78.9388 52.6653 79.1808 50.4674C79.2245 50.3184 79.1531 50.2954 79.1134 50.4445Z" fill="#263238"/>
<path d="M65.4888 58.9769C65.4888 58.9769 65.1754 56.0069 65.3381 54.6729C65.5007 53.3389 67.9963 48.5838 69.0953 49.0425C70.5117 49.6388 69.6309 52.6623 68.9961 54.0843C68.9961 54.0843 72.2772 55.4603 72.1304 57.7614C71.9836 60.0625 65.4888 58.9769 65.4888 58.9769Z" fill="#FAD2BB"/>
<path d="M69.4289 49.3238C70.3137 50.7687 69.3575 52.5843 68.8537 54.0139C68.8443 54.0345 68.8405 54.0571 68.8426 54.0795C68.8447 54.102 68.8527 54.1235 68.8657 54.1422C68.8788 54.1609 68.8965 54.1761 68.9173 54.1864C68.9381 54.1967 68.9612 54.2018 68.9846 54.2012C70.3177 54.8663 71.9959 56.1774 72.2022 57.691C72.2022 57.7369 72.2776 57.7369 72.2776 57.691C72.2776 56.0359 70.7422 54.6331 69.2306 53.9795C69.7741 52.5232 70.6509 50.6578 69.4448 49.3162C69.4369 49.3238 69.425 49.3238 69.4289 49.3238Z" fill="#263238"/>
<path d="M52.3085 66.4051L56.4347 58.7259C56.4347 58.7259 53.0425 55.8629 50.9318 54.5213C48.1545 52.7629 46.8056 53.3516 47.9125 57.1434C48.6505 59.693 52.3085 66.4051 52.3085 66.4051Z" fill="#C898D9"/>
<path d="M51.9741 65.2473C52.4939 64.1006 53.0295 62.9539 53.6206 61.8072C53.9142 61.2453 55.2076 59.0589 55.5131 58.5008C55.5131 58.4702 55.5766 58.5008 55.5608 58.5276C55.2553 59.25 54.0729 61.467 53.7754 62.0289C53.1842 63.1488 52.5851 64.1312 52.0217 65.2626C52.0059 65.3085 51.9583 65.2779 51.9741 65.2473Z" fill="#263238"/>
<path opacity="0.1" d="M56.3443 58.8797L52.3094 66.3869C52.3094 66.3869 48.6474 59.6786 47.9134 57.1405C47.5603 55.9365 47.4571 55.0535 47.5682 54.4648L56.3443 58.8797Z" fill="black"/>
<path d="M60.5771 71.1807H42.1481C42.1481 71.1807 38.6448 62.6567 41.3546 56.2924C42.5885 53.395 44.7429 52.9784 47.0043 53.72C47.5717 53.9073 54.9393 58.2189 56.5541 61.0934C57.6253 63.0046 56.2922 65.5388 56.2922 65.5388L60.5771 71.1807Z" fill="#C898D9"/>
<path d="M55.42 65.8554C54.4648 65.8498 53.5153 65.9984 52.611 66.2949C52.1547 66.4326 51.7024 66.5778 51.2541 66.7383C50.8058 66.8989 50.3138 67.0938 49.8298 67.22C49.7901 67.22 49.81 67.285 49.8298 67.2773C50.294 67.1626 50.7582 67.0671 51.2184 66.9371C51.6786 66.8072 52.127 66.6543 52.5832 66.5205C53.4971 66.2197 54.4413 66.0121 55.4002 65.9012C55.4065 65.9038 55.4136 65.9038 55.4199 65.9013C55.4262 65.8988 55.4312 65.8939 55.4339 65.8879C55.4365 65.8818 55.4365 65.8749 55.4339 65.8688C55.4313 65.8628 55.4263 65.8579 55.42 65.8554Z" fill="#263238"/>
<path d="M55.9654 66.7614C54.8148 66.5512 53.6642 66.7882 52.5256 66.9908C52.4899 66.9908 52.4938 67.0558 52.5256 67.0481C53.6491 66.8198 54.8004 66.7452 55.9455 66.8264C55.9539 66.8273 55.9623 66.8253 55.9692 66.8209C55.9762 66.8164 55.9813 66.8097 55.9837 66.8019C55.9861 66.7942 55.9855 66.7859 55.9822 66.7785C55.9788 66.7711 55.9729 66.765 55.9654 66.7614Z" fill="#263238"/>
<path d="M43.9145 54.5123C44.0613 54.8945 46.3506 57.2682 48.2351 56.9701C48.8461 56.8745 48.4414 53.6255 48.4414 53.6255L48.4692 53.377L48.8422 49.9369L44.4382 47.8613L43.8034 47.5938C43.8034 47.5938 43.7677 48.5455 43.732 49.7266C43.732 49.784 43.732 49.8375 43.732 49.8948C43.732 49.9522 43.732 50.0248 43.732 50.0898C43.732 50.2656 43.732 50.4453 43.7122 50.6249C43.6923 50.8046 43.7122 50.8963 43.7122 51.0416V51.4697C43.7087 52.4871 43.7763 53.5036 43.9145 54.5123Z" fill="#FAD2BB"/>
<path d="M43.7346 49.7073C44.2006 50.6122 44.8659 51.4084 45.684 52.0402C46.5022 52.672 47.4536 53.1242 48.4718 53.3653L48.8447 49.9252L44.4408 47.8496L43.806 47.582C43.806 47.582 43.7703 48.5376 43.7346 49.7073Z" fill="#263238"/>
<path d="M52.2455 43.296C54.5863 48.9493 51.3329 50.9408 50.0673 51.4224C48.9207 51.862 44.9492 53.2228 42.0133 47.8332C39.0773 42.4436 41.069 39.6074 43.64 38.4645C46.2109 37.3216 49.8848 37.6427 52.2455 43.296Z" fill="#FAD2BB"/>
<path d="M51.2399 42.5439C51.097 42.5717 50.9526 42.5921 50.8074 42.605C50.6607 42.6528 50.5018 42.6528 50.3551 42.605C50.3121 42.5804 50.2791 42.5423 50.2618 42.497C50.2445 42.4518 50.2438 42.4022 50.2599 42.3566C50.3026 42.2703 50.3686 42.1968 50.4509 42.1436C50.5333 42.0905 50.6291 42.0597 50.7281 42.0546C50.927 42.0105 51.1359 42.042 51.3113 42.1425C51.3448 42.1686 51.3705 42.2028 51.3857 42.2416C51.401 42.2804 51.4052 42.3225 51.3979 42.3634C51.3906 42.4043 51.3721 42.4426 51.3443 42.4743C51.3166 42.506 51.2805 42.53 51.2399 42.5439Z" fill="#263238"/>
<path d="M47.389 44.0674C47.52 43.9986 47.6311 43.9183 47.758 43.8419C47.885 43.7654 48.0199 43.6966 48.0873 43.5399C48.101 43.4947 48.0992 43.4464 48.082 43.4023C48.0648 43.3582 48.0333 43.3206 47.9921 43.2953C47.9007 43.2567 47.8003 43.2424 47.7012 43.2538C47.6022 43.2652 47.5081 43.302 47.4287 43.3602C47.2445 43.4525 47.1029 43.608 47.032 43.796C47.0164 43.8414 47.0157 43.8904 47.03 43.9362C47.0443 43.982 47.0729 44.0225 47.1119 44.0521C47.1509 44.0817 47.1984 44.0991 47.248 44.1018C47.2975 44.1046 47.3468 44.0925 47.389 44.0674Z" fill="#263238"/>
<path d="M48.7452 45.0078C48.7452 45.0078 48.7214 45.0384 48.7452 45.0537C48.9198 45.4359 49.0507 45.8946 48.7452 46.1622C48.7452 46.1622 48.7452 46.1928 48.7452 46.1851C49.1539 45.9558 48.9753 45.3404 48.7452 45.0078Z" fill="#263238"/>
<path d="M48.2193 44.7369C47.5607 44.9357 48.0249 46.1971 48.6399 46.0098C49.2548 45.8225 48.7748 44.5764 48.2193 44.7369Z" fill="#263238"/>
<path d="M47.9886 44.8986C47.9013 45.0095 47.8338 45.1738 47.7029 45.235C47.6202 45.2556 47.5335 45.2563 47.4505 45.237C47.3674 45.2177 47.2906 45.1789 47.2268 45.1241C47.2268 45.1241 47.2268 45.1241 47.2268 45.1471C47.3141 45.3879 47.5006 45.6019 47.7823 45.5484C48.0639 45.4949 48.1354 45.2197 48.1076 44.956C48.0878 44.9063 48.0243 44.8566 47.9886 44.8986Z" fill="#263238"/>
<path d="M50.8811 44.1992C50.8811 44.1992 50.9168 44.1992 50.9247 44.2222C51.0517 44.6044 51.266 45.0516 51.6825 45.0593C51.6825 45.0593 51.6825 45.0593 51.6825 45.0822C51.2144 45.1701 50.9366 44.5929 50.8811 44.1992Z" fill="#263238"/>
<path d="M51.0945 43.6663C51.7293 43.3988 52.2371 44.6449 51.646 44.8933C51.0548 45.1418 50.5629 43.8919 51.0945 43.6663Z" fill="#263238"/>
<path d="M51.3984 43.6462C51.5293 43.673 51.6801 43.7571 51.7951 43.7189C51.9102 43.6806 51.9895 43.4972 52.0292 43.3366C52.0292 43.3175 52.049 43.3366 52.053 43.3366C52.1562 43.5736 52.176 43.8526 51.9578 43.9864C51.7396 44.1202 51.5174 43.9673 51.3627 43.7494C51.3389 43.715 51.3468 43.6348 51.3984 43.6462Z" fill="#263238"/>
<path d="M50.9614 46.2408C50.9614 46.2408 51.2669 46.795 51.3581 47.0664C51.3581 47.0932 51.3026 47.1276 51.2074 47.1696C50.9821 47.302 50.7234 47.372 50.4595 47.372C50.1957 47.372 49.9369 47.302 49.7116 47.1696C49.6799 47.1505 49.7116 47.1084 49.7394 47.1161C50.1934 47.2273 50.6727 47.1924 51.1042 47.0167C51.1042 46.9364 50.5448 46.0917 50.5885 46.0726C50.8171 46.0117 51.0535 45.9821 51.2907 45.9847C50.6876 44.8379 49.8941 43.7562 49.3069 42.5866C49.2871 42.5445 49.3466 42.5063 49.3744 42.5407C50.2577 43.6565 51.0245 44.8536 51.6636 46.1146C51.7589 46.2637 51.0923 46.2637 50.9614 46.2408Z" fill="#263238"/>
<path d="M42.3957 48.1385C42.7194 47.8463 42.959 47.4783 43.0911 47.0703C43.2233 46.6624 43.2434 46.2284 43.1496 45.8107C44.0473 45.0629 44.7223 44.0986 45.1055 43.0165C45.1055 43.1465 45.1055 44.083 45.0658 44.5455C48.6168 42.7451 48.8945 39.6222 48.8945 39.6222C49.8196 40.0455 50.6334 40.6649 51.275 41.434C51.275 41.434 50.5886 39.1979 48.9223 38.0627C46.883 36.6675 41.8125 37.6346 40.3009 40.6925C38.6782 44.0027 42.3957 48.1385 42.3957 48.1385Z" fill="#A3564F"/>
<path d="M47.7396 43.1085C47.2361 43.6072 46.6585 44.031 46.0256 44.3661C46.9981 43.7732 47.7788 42.9297 48.2792 41.9312C48.4897 41.5068 48.6443 41.0586 48.7394 40.5972C48.8635 40.0963 48.8838 39.5767 48.7989 39.0683C48.7989 39.03 48.8505 39.0186 48.8584 39.0683C48.999 39.5659 49.0526 40.0826 49.0171 40.5972C48.959 41.1038 48.8057 41.596 48.5648 42.0497C48.3469 42.4492 48.0717 42.8172 47.7475 43.1429" fill="#A3564F"/>
<path d="M42.8514 49.9188C42.9515 49.9307 43.0527 49.9307 43.1529 49.9188C43.382 49.8926 43.5949 49.7914 43.7559 49.6322C43.8262 49.5621 43.8851 49.4822 43.9305 49.3952C43.9958 49.2759 44.0388 49.1466 44.0575 49.0129L43.2362 47.5566C43.2362 47.5566 41.3437 46.1194 40.6335 46.8227C39.9233 47.526 41.7325 49.85 42.8514 49.9188Z" fill="#FAD2BB"/>
<path d="M41.1702 47.4619V47.4887C41.9637 47.5575 42.527 48.0812 42.9912 48.6583C42.9293 48.6022 42.8554 48.5598 42.7747 48.5339C42.694 48.508 42.6085 48.4993 42.524 48.5083C42.4395 48.5174 42.358 48.5441 42.2852 48.5865C42.2125 48.6289 42.1501 48.686 42.1025 48.7539C42.0983 48.7574 42.0957 48.7625 42.0954 48.7678C42.095 48.7732 42.0969 48.7785 42.1005 48.7826C42.1042 48.7866 42.1094 48.7891 42.115 48.7895C42.1206 48.7898 42.1261 48.788 42.1303 48.7845C42.2423 48.71 42.3751 48.6701 42.5112 48.6701C42.6472 48.6701 42.7801 48.71 42.8921 48.7845C43.0735 48.9159 43.241 49.0645 43.392 49.2279C43.4435 49.2776 43.5467 49.2279 43.4991 49.1514C43.2412 48.2761 42.162 47.267 41.1702 47.4619Z" fill="#263238"/>
<path d="M42.8593 49.6501C42.8747 49.6869 42.8979 49.7202 42.9275 49.7478C42.9571 49.7754 42.9923 49.7967 43.031 49.8103C43.0697 49.8239 43.1109 49.8295 43.1519 49.8268C43.193 49.824 43.233 49.813 43.2694 49.7944C43.3057 49.7758 43.3376 49.7501 43.363 49.7188C43.3883 49.6876 43.4066 49.6516 43.4166 49.6131C43.4266 49.5746 43.428 49.5346 43.4209 49.4955C43.4137 49.4564 43.3981 49.4193 43.3751 49.3864C43.3346 49.3285 43.2732 49.2871 43.2029 49.2701C43.1325 49.2532 43.0581 49.262 42.9941 49.2947C42.93 49.3275 42.8808 49.3819 42.856 49.4475C42.8311 49.5132 42.8323 49.5853 42.8593 49.6501Z" fill="white"/>
<path d="M42.1561 49.4113C42.1686 49.4344 42.1858 49.4548 42.2066 49.4714C42.2275 49.488 42.2515 49.5004 42.2774 49.5079C42.3033 49.5154 42.3305 49.5178 42.3573 49.515C42.3842 49.5122 42.4102 49.5042 42.4339 49.4915C42.47 49.4731 42.4996 49.4447 42.519 49.4099C42.5383 49.3752 42.5465 49.3357 42.5425 49.2965C42.5385 49.2572 42.5225 49.2201 42.4965 49.1896C42.4704 49.1592 42.4356 49.1369 42.3965 49.1256C42.3573 49.1142 42.3155 49.1144 42.2764 49.126C42.2373 49.1376 42.2026 49.1602 42.1769 49.1908C42.1511 49.2214 42.1354 49.2587 42.1317 49.298C42.128 49.3372 42.1365 49.3767 42.1561 49.4113Z" fill="white"/>
<path d="M40.9727 58.3542C39.8697 65.0816 38.9334 74.4083 40.9132 76.8126C42.3613 78.5671 54.4027 81.3689 58.2035 82.1639C59.5604 82.443 62.8455 73.4221 61.4291 72.9902C59.5842 72.4283 47.3366 70.5133 47.043 69.6838C46.8763 69.2136 45.6266 61.6338 44.9124 58.3504C43.5754 52.1887 41.3575 55.9996 40.9727 58.3542Z" fill="#FAD2BB"/>
<path d="M57.5602 82.0497C58.2109 82.3096 64.4121 83.1964 66.4514 82.9403C68.6138 82.7296 70.7259 82.1795 72.7041 81.312C75.8226 79.9283 78.0642 78.8236 78.5125 77.8718C79.0363 76.7672 77.846 76.1938 72.9581 77.9559C69.7206 79.1218 68.2367 78.235 67.1576 77.2641C64.5292 74.8792 61.3372 73.1474 57.8578 72.2185C57.8578 72.2185 55.0567 81.0483 57.5602 82.0497Z" fill="#FAD2BB"/>
<path d="M67.7203 77.7291C66.5697 76.7582 72.3265 77.7291 73.5445 76.5518C74.7626 75.3745 73.1478 74.6406 71.4933 74.4953C65.7762 73.9449 63.2925 71.5712 59.3727 72.3816C55.4528 73.1919 67.7203 77.7291 67.7203 77.7291Z" fill="#FAD2BB"/>
<path d="M38.9475 67.1503L46.9341 63.2094C46.9341 63.2094 45.9025 58.9819 44.986 56.7113C43.772 53.7146 42.3358 53.447 40.9471 57.1509C40.0148 59.6431 38.9475 67.1503 38.9475 67.1503Z" fill="#C898D9"/>
<path d="M46.1489 63.6062C46.3961 63.4539 46.6517 63.3148 46.9147 63.1896C46.7798 62.6965 46.6369 62.2034 46.5179 61.7065C46.4544 61.458 46.3949 61.2096 46.3354 60.942C46.2759 60.6744 46.1886 60.3572 46.1331 60.1164C46.1331 60.1093 46.136 60.1025 46.1412 60.0974C46.1464 60.0924 46.1535 60.0896 46.1608 60.0896C46.1682 60.0896 46.1753 60.0924 46.1805 60.0974C46.1857 60.1025 46.1886 60.1093 46.1886 60.1164C46.2918 60.426 46.3592 60.6591 46.4465 60.9267C46.51 61.1178 46.5655 61.3089 46.6211 61.5039C46.6211 61.4504 46.6211 61.3969 46.6211 61.3472C46.6211 61.0643 46.6211 60.7891 46.5973 60.5062C46.5973 60.4718 46.6488 60.468 46.6528 60.5062C46.6528 60.7891 46.7202 61.0643 46.7401 61.3433C46.7659 61.5552 46.7739 61.7686 46.7639 61.9817C46.8869 62.3945 47.0694 62.8494 47.1606 63.2622C46.8395 63.4115 46.5081 63.5392 46.1688 63.6444C46.1688 63.6444 46.137 63.6139 46.1489 63.6062Z" fill="#263238"/>
<path d="M39.3663 66.0207C40.4891 65.3709 41.6159 64.7364 42.7784 64.1515C43.3576 63.8572 45.7302 62.8061 46.3134 62.5232C46.3452 62.5232 46.365 62.5538 46.3134 62.5729C45.631 62.9895 43.3299 64.1286 42.7427 64.4191C41.5842 65.0001 40.505 65.4626 39.3624 66.0704C39.3584 66.0857 39.3386 66.0398 39.3663 66.0207Z" fill="#263238"/>
</svg>
