<!DOCTYPE svg PUBLIC "-//W3C//DTD SVG 1.1//EN" "http://www.w3.org/Graphics/SVG/1.1/DTD/svg11.dtd">
<!-- Uploaded to: SVG Repo, www.svgrepo.com, Transformed by: SVG Repo Mixer Tools -->
<svg width="800px" height="800px" viewBox="-1.06 0 20 20" xmlns="http://www.w3.org/2000/svg" fill="#647FBC" stroke="#647FBC">
<g id="SVGRepo_bgCarrier" stroke-width="0"/>
<g id="SVGRepo_tracerCarrier" stroke-linecap="round" stroke-linejoin="round"/>
<g id="SVGRepo_iconCarrier"> <g id="medical-insurance-2" transform="translate(-3.059 -2)"> <path id="secondary" fill="#647FBC" d="M19.94,5.8l-.43,5.52a11,11,0,0,1-6.63,9.26L12,21l-.88-.42a11,11,0,0,1-6.63-9.26L4.06,5.8a1,1,0,0,1,.76-1L12,3l7.18,1.8a1,1,0,0,1,.76,1Z"/> <path id="primary" d="M12,14V10m2,2H10m9.18-7.2L12,3,4.82,4.8a1,1,0,0,0-.76,1l.43,5.52a11,11,0,0,0,6.63,9.26L12,21l.88-.42a11,11,0,0,0,6.63-9.26l.43-5.52A1,1,0,0,0,19.18,4.8Z" fill="none" stroke="#000000" stroke-linecap="round" stroke-linejoin="round" stroke-width="2"/> </g> </g>
</svg>